<svg xmlns="http://www.w3.org/2000/svg" viewBox="0 0 1024 135">
	<defs>
		<style>
			.cls-1{fill:#54b4e6;}
			.cls-2{fill:#d4eefa;}
			.cls-3{fill:#f9fdfc;}

			#cloud_small_1, #cloud_small_8 {
			animation: cloudRightFast 30s ease-in-out infinite alternate;
			}

			@keyframes cloudRightFast {
			from {transform: translateX(0px);} to {transform: translateX(300px);}
			}



			#cloud_big_1, #cloud_small_4, #cloud_small_6, #cloud_medium_2 {
			animation: cloudRightSlow 50s ease-in-out infinite alternate;
			}

			@keyframes cloudRightSlow {
			from {transform: translateX(0px);} to {transform: translateX(200px);}
			}



			#cloud_small_2, #cloud_medium_1, #cloud_big_2 {
			animation: cloudLeftSlow 70s ease-in-out infinite alternate;
			}

			@keyframes cloudLeftSlow {
			from {transform: translateX(0px);} to {transform: translateX(-150px);}
			}



			#cloud_small_3, #cloud_small_5, #cloud_small_7 {
			animation: cloudLeftFast 40s ease-in-out infinite alternate;
			}

			@keyframes cloudLeftFast {
			from {transform: translateX(0px);} to {transform: translateX(-100px);}
			}
		</style>
	</defs>
	<g id="header_sky">
		<g id="sky_background">
			<rect class="cls-1" x="-3.34" y="-3.06" width="1030.69" height="141.12"/>
		</g>

		<g id="cloud_small_8">
			<path class="cls-2" d="M34.1,111.47a1,1,0,0,0,.33-.17c1.22-.37,2.36-1.07,3.69-1,.05.65-1.16,1-.47,1.76.44.46,1.18.32,1.75.14a13.4,13.4,0,0,1,5-.25,14.61,14.61,0,0,0,8.64-2c1.92-1.07,4.33-1.59,6.36-.14a6.79,6.79,0,0,0,4.72,1.3,6.18,6.18,0,0,1,1.55.39c2.46.48,4.94,1,7.43.1A1.33,1.33,0,0,1,74.26,113l-.29.37a10.87,10.87,0,0,1-5.81.38,19.83,19.83,0,0,0-6.84.3,32.72,32.72,0,0,1-9.27,0,8.83,8.83,0,0,0-3-.06,24.75,24.75,0,0,1-12.78-.66C35.28,113.11,33.93,113.09,34.1,111.47Z"/>
			<path class="cls-3" d="M38.12,110.25a9.18,9.18,0,0,0,3.16-.51,5.48,5.48,0,0,0,4.79-.69c2.3-1.6,5.2-2.21,7.24-4.32.26-.27.92-.11,1.37-.24,2-.55,3.82.6,5.68.67,3.47.12,5.32,2,6.89,4.68.67,1.16,1.83,1.86,3.19.7l2.7,1c-2.49,1-5,.38-7.43-.1a6.18,6.18,0,0,0-1.55-.39,6.79,6.79,0,0,1-4.72-1.3c-2-1.45-4.44-.93-6.36.14a14.61,14.61,0,0,1-8.64,2,13.4,13.4,0,0,0-5,.25c-.57.18-1.31.32-1.75-.14C37,111.29,38.17,110.9,38.12,110.25Z"/>
			<path class="cls-2" d="M70.44,110.54c-1.36,1.16-2.52.46-3.19-.7-1.57-2.71-3.42-4.56-6.89-4.68-1.86-.07-3.67-1.22-5.68-.67-.45.13-1.11,0-1.37.24-2,2.11-4.94,2.72-7.24,4.32a5.48,5.48,0,0,1-4.79.69c1.65-1.2,3.78-1.14,5.54-2.31,1.5-1,3.38-1.46,4.75-2.83a6.69,6.69,0,0,1,2-.92c2.79-1.26,5.24.81,7.86.79a6.17,6.17,0,0,1,6.14,4.11C68.19,109.93,70,109.18,70.44,110.54Z"/>
		</g>
		<g id="cloud_small_7">
			<path class="cls-3" d="M198.85,59.69a119.59,119.59,0,0,1,13.45-5,4,4,0,0,1,3,0,33.16,33.16,0,0,0,8.41,2.86,1.66,1.66,0,0,1,1.35,1.38c.1.87-.52,1.16-1.25,1.29a8.08,8.08,0,0,0-5.3-.58,3.07,3.07,0,0,1-2.33-.25,7.58,7.58,0,0,0-6.82,0c-2.88,1.28-6,.68-8.94,1.13A1.93,1.93,0,0,1,198.85,59.69Z"/>
			<path class="cls-2" d="M198.85,59.69a1.93,1.93,0,0,0,1.57.81c3-.45,6.06.15,8.94-1.13a7.58,7.58,0,0,1,6.82,0,3.07,3.07,0,0,0,2.33.25,8.08,8.08,0,0,1,5.3.58c-4.16,1-8.31,2.25-12.68,1.78a74.34,74.34,0,0,0-7.9,0,11.22,11.22,0,0,1-3.6-.43C198.72,61.15,198.16,60.69,198.85,59.69Z"/>
		</g>
		<g id="cloud_small_6">
			<path class="cls-3" d="M304.53,28.41l.74.5c0,1.07-.68,1.18-1.49,1.15-1.55-.06-3.26-.42-4.62-.1-4.85,1.14-9.38-1.81-14.15-.73a3.23,3.23,0,0,1-1.94-.48,9.59,9.59,0,0,0-7.32-.26c-3.33,1.26-6.74,1.16-10.16,1.08-.76,0-1.67-.15-1.92-1.17h0a.86.86,0,0,0,.84-.34,9.62,9.62,0,0,0,2.9-1.81,3.3,3.3,0,0,1,1-.67c2.95-1.39,6-2.55,8.83-4.22a6.41,6.41,0,0,1,6.28.28,9.51,9.51,0,0,0,4.59,1.16,8,8,0,0,1,6.15,2.68,2.82,2.82,0,0,0,2.33.95,16.65,16.65,0,0,1,7.46,1.68Z"/>
			<path class="cls-2" d="M263.67,28.4c.25,1,1.16,1.16,1.92,1.17,3.42.08,6.83.18,10.16-1.08a9.59,9.59,0,0,1,7.32.26,3.23,3.23,0,0,0,1.94.48c4.77-1.08,9.3,1.87,14.15.73,1.36-.32,3.07,0,4.62.1.81,0,1.52-.08,1.49-1.15,1.51,1.16.4,1.88-.45,2.64-1.08.1-2.16.25-3.24.29-4.18.16-8.33,1.14-12.53.49a55.07,55.07,0,0,0-10.27-.09c-2.87.1-5.69.54-8.49-.48a7.7,7.7,0,0,0-4.21-.26,5.22,5.22,0,0,1-4.35-1.1C261.6,29,262.44,28.5,263.67,28.4Z"/>
			<path class="cls-2" d="M264.52,28.06a.86.86,0,0,1-.84.34A.83.83,0,0,1,264.52,28.06Z"/>
			<path class="cls-2" d="M304.53,28.41l-.46-.3Z"/>
		</g>
		<g id="cloud_small_5">
			<path class="cls-3" d="M634.08,108.71a119.59,119.59,0,0,1,13.45-5,3.9,3.9,0,0,1,3,0,33.55,33.55,0,0,0,8.41,2.86,1.62,1.62,0,0,1,1.35,1.37c.1.87-.52,1.17-1.25,1.3a8.08,8.08,0,0,0-5.3-.59,3,3,0,0,1-2.32-.25,7.6,7.6,0,0,0-6.83,0c-2.88,1.28-6,.69-8.94,1.13A2,2,0,0,1,634.08,108.71Z"/>
			<path class="cls-2" d="M634.08,108.71a2,2,0,0,0,1.57.81c3-.44,6.06.15,8.94-1.13a7.6,7.6,0,0,1,6.83,0,3,3,0,0,0,2.32.25,8.08,8.08,0,0,1,5.3.59c-4.16,1-8.3,2.24-12.68,1.77a77.09,77.09,0,0,0-7.9,0,11.25,11.25,0,0,1-3.6-.43C634,110.17,633.39,109.72,634.08,108.71Z"/>
		</g>
		<g id="cloud_small_4">
			<path class="cls-2" d="M625.28,34.94a1.29,1.29,0,0,0,.33-.17c1.22-.37,2.36-1.07,3.69-1.05.05.65-1.16,1-.47,1.76.44.46,1.17.32,1.75.14a13.6,13.6,0,0,1,5-.26,14.55,14.55,0,0,0,8.64-2c1.92-1.07,4.33-1.59,6.36-.14a6.82,6.82,0,0,0,4.72,1.3,6.11,6.11,0,0,1,1.54.39c2.47.48,5,1.05,7.43.1a1.33,1.33,0,0,1,1.13,1.48c-.1.13-.19.26-.29.38a10.88,10.88,0,0,1-5.81.38,19.81,19.81,0,0,0-6.84.3,32.72,32.72,0,0,1-9.27,0,8.83,8.83,0,0,0-3-.06,24.8,24.8,0,0,1-12.79-.67C626.46,36.58,625.11,36.55,625.28,34.94Z"/>
			<path class="cls-3" d="M629.3,33.72a9.43,9.43,0,0,0,3.16-.51,5.49,5.49,0,0,0,4.79-.69c2.29-1.6,5.2-2.21,7.24-4.32.26-.27.92-.11,1.37-.24,2-.55,3.82.6,5.68.66,3.47.13,5.32,2,6.89,4.69.66,1.16,1.82,1.85,3.19.69l2.69,1c-2.48,1-5,.38-7.43-.1a6.11,6.11,0,0,0-1.54-.39,6.82,6.82,0,0,1-4.72-1.3c-2-1.45-4.44-.93-6.36.14a14.55,14.55,0,0,1-8.64,2,13.6,13.6,0,0,0-5,.26c-.58.18-1.31.32-1.75-.14C628.14,34.76,629.35,34.37,629.3,33.72Z"/>
			<path class="cls-2" d="M661.62,34c-1.37,1.16-2.53.47-3.19-.69-1.57-2.71-3.42-4.56-6.89-4.69-1.86-.06-3.67-1.21-5.68-.66-.45.13-1.11,0-1.37.24-2,2.11-5,2.72-7.24,4.32a5.49,5.49,0,0,1-4.79.69c1.65-1.2,3.78-1.14,5.54-2.32,1.5-1,3.37-1.45,4.74-2.82a6.93,6.93,0,0,1,2-.92c2.79-1.26,5.25.81,7.87.79a6.17,6.17,0,0,1,6.14,4.11C659.37,33.4,661.17,32.65,661.62,34Z"/>
		</g>
		<g id="cloud_small_3">
			<path class="cls-3" d="M973.82,29.57l.74.5c0,1.07-.68,1.18-1.49,1.15-1.55-.06-3.26-.42-4.63-.1-4.84,1.14-9.38-1.81-14.14-.73a3.26,3.26,0,0,1-1.95-.48,9.59,9.59,0,0,0-7.32-.26c-3.33,1.27-6.73,1.16-10.15,1.09-.76,0-1.67-.16-1.92-1.18h0a.9.9,0,0,0,.85-.35,9.38,9.38,0,0,0,2.89-1.81,3.23,3.23,0,0,1,1-.67c2.95-1.39,6-2.54,8.82-4.22a6.41,6.41,0,0,1,6.28.29,9.68,9.68,0,0,0,4.6,1.15,8,8,0,0,1,6.15,2.69,2.84,2.84,0,0,0,2.32.94,16.83,16.83,0,0,1,7.47,1.68Z"/>
			<path class="cls-2" d="M933,29.56c.25,1,1.16,1.16,1.92,1.18,3.42.07,6.82.18,10.15-1.09a9.59,9.59,0,0,1,7.32.26,3.26,3.26,0,0,0,1.95.48c4.76-1.08,9.3,1.87,14.14.73,1.37-.32,3.08,0,4.63.1.81,0,1.52-.08,1.49-1.15,1.51,1.17.4,1.88-.46,2.64-1.08.1-2.15.26-3.24.3-4.17.15-8.33,1.13-12.52.49a54.23,54.23,0,0,0-10.27-.1c-2.87.11-5.69.54-8.49-.48a7.61,7.61,0,0,0-4.21-.25A5.26,5.26,0,0,1,931,31.56C930.89,30.14,931.73,29.66,933,29.56Z"/>
			<path class="cls-2" d="M933.81,29.22a.9.9,0,0,1-.85.35A.86.86,0,0,1,933.81,29.22Z"/>
			<path class="cls-2" d="M973.82,29.57l-.46-.3Z"/>
		</g>
		<g id="cloud_small_2">
			<path class="cls-3" d="M83.59,70.2c1.93-1.57,4.23-1.69,6.55-1.62a6.32,6.32,0,0,0,3.19-.91c3.87-1.94,7.83-3.6,11.58-5.92s7.74-.4,11,2.32a4.59,4.59,0,0,0,3.2,1.34,10,10,0,0,1,6.79,2.24c.78.68,1.74.64,2.63.91,1.87.56,3.8,1,5.18,2.52-.4.87-1.27.5-1.92.73-2.78,1-5.38-.26-8.06-.51A19.77,19.77,0,0,1,116.29,69a11.53,11.53,0,0,0-11.13-.07,12.13,12.13,0,0,1-6.22,1.29c-1.28,0-2.6-.19-3.78.53a5,5,0,0,1-3.33.68,26.58,26.58,0,0,0-6.24,0C84.69,71.49,83.76,71.43,83.59,70.2Z"/>
			<path class="cls-2" d="M83.59,70.2c.17,1.23,1.1,1.29,2,1.18a26.58,26.58,0,0,1,6.24,0,5,5,0,0,0,3.33-.68c1.18-.72,2.5-.55,3.78-.53a12.13,12.13,0,0,0,6.22-1.29,11.53,11.53,0,0,1,11.13.07,19.77,19.77,0,0,0,7.42,2.34c2.68.25,5.28,1.52,8.06.51.65-.23,1.52.14,1.92-.73,1.12,1,.05,1.61-.38,2.34h0c-4.68,1.48-9.4.72-14.1.17a27.06,27.06,0,0,0-7.08.35,44.49,44.49,0,0,1-9.72.07c-4.19-.27-8.41-.1-12.62-.08a14.07,14.07,0,0,1-5.9-1.34C82.62,72,82.16,71.18,83.59,70.2Z"/>
		</g>
		<g id="cloud_small_1">
			<path class="cls-3" d="M714.26,83.46c1.93-1.57,4.23-1.69,6.55-1.62a6.53,6.53,0,0,0,3.19-.91c3.88-1.94,7.83-3.61,11.58-5.92s7.75-.41,11,2.32a4.56,4.56,0,0,0,3.2,1.33,10,10,0,0,1,6.8,2.25,6.12,6.12,0,0,0,2.62.9c1.87.56,3.8,1,5.19,2.53-.41.87-1.28.5-1.92.73-2.78,1-5.38-.27-8.07-.52A19.47,19.47,0,0,1,747,82.21a11.51,11.51,0,0,0-11.12-.06,12.16,12.16,0,0,1-6.23,1.29c-1.27,0-2.59-.19-3.77.53a5.1,5.1,0,0,1-3.34.68,26.05,26.05,0,0,0-6.24,0C715.36,84.74,714.44,84.68,714.26,83.46Z"/>
			<path class="cls-2" d="M714.26,83.46c.18,1.22,1.1,1.28,2,1.18a26.05,26.05,0,0,1,6.24,0,5.1,5.1,0,0,0,3.34-.68c1.18-.72,2.5-.55,3.77-.53a12.16,12.16,0,0,0,6.23-1.29,11.51,11.51,0,0,1,11.12.06,19.47,19.47,0,0,0,7.42,2.34c2.69.25,5.29,1.52,8.07.52.64-.23,1.51.14,1.92-.73,1.11,1,0,1.6-.39,2.33h0c-4.68,1.48-9.4.71-14.1.17a26.22,26.22,0,0,0-7.08.35,45.12,45.12,0,0,1-9.72.06c-4.19-.27-8.41-.09-12.62-.07a14.23,14.23,0,0,1-5.9-1.35C713.3,85.26,712.83,84.43,714.26,83.46Z"/>
		</g>
		<g id="cloud_medium_2">
			<path class="cls-3" d="M25.49,31.15A9.3,9.3,0,0,1,31,30c.54,0,1.15.2,1.6-.25a7.07,7.07,0,0,1,4.36-1.9,1.21,1.21,0,0,0,.88-.43c2.37-3.09,5.87-3.41,9.33-3.65A29.23,29.23,0,0,1,57.4,24.87a2.08,2.08,0,0,0,2.51-.69c1.5-1.88,3.63-2.49,5.88-2.81a1.86,1.86,0,0,0,1.55-.75c3-4.38,7.23-6.67,12.31-7.61a25.13,25.13,0,0,1,12.23.84,12.76,12.76,0,0,1,8,7.07,1.67,1.67,0,0,0,2.17,1.1,8.62,8.62,0,0,1,7.63,2.11,1.72,1.72,0,0,0,2.11.37,9.74,9.74,0,0,1,7.81,0,4.52,4.52,0,0,0,3.55.13c2.57-1,4.83-.42,7.11,1a12.73,12.73,0,0,0,5.61,1.62A12,12,0,0,1,141.57,29a3.85,3.85,0,0,0,2.51.69,15.3,15.3,0,0,1,7.47,1.47c-.75,1.25-2,1.28-3.23,1.21-1.72-.1-3.42-.45-5.14-.54-2.22-.11-4.44-.37-6.64.36a11.05,11.05,0,0,1-7,.11,11.3,11.3,0,0,0-6.78.11,7,7,0,0,1-4.21.31,12.39,12.39,0,0,0-4.49-.28,11.32,11.32,0,0,1-4.56-.58,10.43,10.43,0,0,0-3.8-.47c-3.08.15-6,.64-8.92-1.53s-7-2-10.67-2.1A27.41,27.41,0,0,0,70.9,31.31a9.73,9.73,0,0,1-6.37,1.46,9.35,9.35,0,0,0-3.64.4A7.42,7.42,0,0,1,56.44,33c-4.66-1.62-9.37-.92-14.07-.35-2.73.34-5.41,1.72-8.2.64a16.16,16.16,0,0,0-6.74-.88A3.16,3.16,0,0,1,25,31.72l.22-.29Z"/>
			<path class="cls-2" d="M25,31.72a3.16,3.16,0,0,0,2.48.73,16.16,16.16,0,0,1,6.74.88c2.79,1.08,5.47-.3,8.2-.64,4.7-.57,9.41-1.27,14.07.35a7.42,7.42,0,0,0,4.45.13,9.35,9.35,0,0,1,3.64-.4,9.73,9.73,0,0,0,6.37-1.46,27.41,27.41,0,0,1,15.22-3.52c3.66.11,7.66-.13,10.67,2.1s5.84,1.68,8.92,1.53a10.43,10.43,0,0,1,3.8.47,11.32,11.32,0,0,0,4.56.58,12.39,12.39,0,0,1,4.49.28,7,7,0,0,0,4.21-.31,11.3,11.3,0,0,1,6.78-.11,11.05,11.05,0,0,0,7-.11c2.2-.73,4.42-.47,6.64-.36,1.72.09,3.42.44,5.14.54,1.2.07,2.48,0,3.23-1.21.65.2,1.13.56,1,1.3s-.76.73-1.27.88a11.36,11.36,0,0,1-5,.43,32.74,32.74,0,0,0-11.42.73,21.43,21.43,0,0,1-7.66,0,6.35,6.35,0,0,0-3.72.55A31.55,31.55,0,0,1,107.76,38a10.66,10.66,0,0,0-5.23.69c-4,1.7-8.16,1.52-12.34.78a3.74,3.74,0,0,0-1.63,0c-3.32.85-6.53.23-9.69-.84a4.8,4.8,0,0,0-2.76-.14c-4,1-8,1.29-11.92-.64a1.91,1.91,0,0,0-1.62,0,6.37,6.37,0,0,1-4.53.09c-3.78-1.25-7.62-.43-11.39,0A26.52,26.52,0,0,1,36.59,37c-2.43-.68-4.9-1-7.33-1.64a9,9,0,0,1-3.76-1.66C24.94,33.19,24.18,32.63,25,31.72Z"/>
		</g>
		<g id="cloud_medium_1">
			<path class="cls-3" d="M715.86,45.88c-.92-.14-2.08,0-2.41-1.12s.76-1.88,1.51-2.42a14.75,14.75,0,0,1,9.6-2.75,5,5,0,0,0,4.6-1.71c1.89-2.17,4.71-2.92,7.55-3.12a5.35,5.35,0,0,0,3.42-1.38c2.34-2.06,5.27-2.37,8.26-2.08,1.56.15,3.08.39,4.38-.88a2.66,2.66,0,0,1,1.66-.72c3,0,4.73-1.83,6.76-3.84A23.6,23.6,0,0,1,789.56,22c3.59,2,6,5.27,8,8.78,1.27,2.17,2.75,2.6,5,1.71,4.28-1.73,8.27-.87,11.92,1.74a3.78,3.78,0,0,0,2.61.81,7.27,7.27,0,0,1,6.63,3.26c.27.38.62,1,.94,1,3.13,0,5,2.9,8,3.31a2.92,2.92,0,0,1,.38.14c.91.33,2,.71,1.85,1.85s-1.36.86-2.19.91-1.63,0-2.45,0c.6-.44,1.52.12,2-.62-.09-.62-.61-.72-1.05-.81-3.63-.73-7.27-1.4-10.89-2.15a16.31,16.31,0,0,0-6.85-.06,2.23,2.23,0,0,1-1.92-.46c-4.38-3.3-9.45-3.24-14.51-2.82-2.17.18-4.19.58-6.21-.72A14.94,14.94,0,0,0,786.31,36,32.82,32.82,0,0,0,764,38.45c-1.27.6-2.33,2-3.77,1.84-4.67-.46-8.92,2.3-13.57,1.64-2.16-.31-4,1-6.15.89a23.38,23.38,0,0,0-8.66.87,19.09,19.09,0,0,1-7.64.67c-2.69-.23-5.12,1.08-7.76,1C716.23,45.35,716,45.7,715.86,45.88Z"/>
			<path class="cls-2" d="M715.86,45.88c.18-.18.37-.53.55-.53,2.64.09,5.07-1.22,7.76-1a19.09,19.09,0,0,0,7.64-.67,23.38,23.38,0,0,1,8.66-.87c2.11.12,4-1.2,6.15-.89,4.65.66,8.9-2.1,13.57-1.64,1.44.15,2.5-1.24,3.77-1.84A32.82,32.82,0,0,1,786.31,36a14.94,14.94,0,0,1,4.49,1.89c2,1.3,4,.9,6.21.72,5.06-.42,10.13-.48,14.51,2.82a2.23,2.23,0,0,0,1.92.46,16.31,16.31,0,0,1,6.85.06c3.62.75,7.26,1.42,10.89,2.15.44.09,1,.19,1.05.81-.51.74-1.43.18-2,.62-6.42,1.84-12.86,1.51-19.3.08a2.11,2.11,0,0,0-.8-.14c-5.93,1.13-11.91-.57-17.82.26-3.68.52-7.17,2-10.91,2.35a63.74,63.74,0,0,1-14.61.07c-5.19-.71-10.49.16-15.62-.92-3.77-.79-7.35-.17-11,.29a30.85,30.85,0,0,1-10.54-.21,36.17,36.17,0,0,0-9.28-.87A13.25,13.25,0,0,1,715.86,45.88Z"/>
		</g>
		<g id="cloud_big_1">
			<path class="cls-2" d="M780.67,107.06c.24,1.66,1.31,2,2.71,1.57a11.69,11.69,0,0,1,8.76.1,3.25,3.25,0,0,0,3.09-.51,27,27,0,0,1,14.25-3.34A49.08,49.08,0,0,1,821.7,107c.77.2,1.46.32,1.95-.47,2.29-3.68,6.11-4.49,9.94-5.22a35.18,35.18,0,0,1,21.84,2.48,6.57,6.57,0,0,0,5.09.52,14.79,14.79,0,0,1,9.3,0,4.29,4.29,0,0,0,3.42-.29,34.13,34.13,0,0,1,17.33-3,4,4,0,0,0,3.52-1.3c2.1-2.25,5-3,7.89-3.44a34.65,34.65,0,0,1,17.42,2,19.63,19.63,0,0,1,6.19,4.41,3,3,0,0,0,3,.83,9.22,9.22,0,0,1,6.23.57,3.22,3.22,0,0,0,2.53,0,25.66,25.66,0,0,1,17-.24c2.67.8,5.29,1.72,8.1.35,1.09-.54,2.3.47,3.45.29,5.7-.94,11.32.58,17,.49,2.62,0,5.06-1.4,7.75-1a.77.77,0,0,0,.9-.75.83.83,0,0,0-.88-.81c-3.77.58-5.42-2.08-7.46-4.47-1.42-1.67-3.77-2.21-5.8-3a6.71,6.71,0,0,0-6.06.33c-.18.46,1.6.56.39,1.33-.63.39-1.22.18-1.35-.54s-.73-.76-1.34-1c-1.27-.53-2.35-1.39-2-3.13.49-2.68-1.36-4.5-3-6a17.19,17.19,0,0,0-12.49-4.39,1.42,1.42,0,0,1-1.16-.51c6.49-1.69,14.5,2.09,17.31,8.17a8.24,8.24,0,0,1,.8,2c.35,2.1,1.6,2.35,3.47,2.12a15.07,15.07,0,0,1,10.85,2.56,6.67,6.67,0,0,1,2.1,1.9c1.7,3.18,4.74,3.53,7.78,4,1.34.76,2.69,1.5,4,2.27a1.9,1.9,0,0,1,1.16,2,1.71,1.71,0,0,1-1.66,1.24,62.43,62.43,0,0,1-7.2.7c-12.69.21-25.32.91-37.75,3.77a20.7,20.7,0,0,1-4.6.29A198.13,198.13,0,0,0,921,113.71c-8.58,1.11-17.23.44-25.84-.49a40.64,40.64,0,0,0-9.62-.36,35.28,35.28,0,0,1-11.18-.41,39.57,39.57,0,0,0-17.62.46c-6.07,1.56-12.22,1-18.32-.06a40.85,40.85,0,0,0-9.88-.16,51.43,51.43,0,0,1-11.83-.14,36,36,0,0,0-8.1-.08,58.68,58.68,0,0,1-17.27-1.17,36,36,0,0,0-8.72-.93,6.79,6.79,0,0,1-1.75-.14c-.93-.22-2-.53-2.06-1.65S779.76,107.23,780.67,107.06Z"/>
			<path class="cls-3" d="M990.63,102.55c-3.77.58-5.42-2.08-7.46-4.47-1.42-1.67-3.77-2.21-5.8-3a6.71,6.71,0,0,0-6.06.33c-.18.46,1.6.56.39,1.33-.63.39-1.22.18-1.35-.54s-.73-.76-1.34-1c-1.27-.53-2.35-1.39-2-3.13.49-2.68-1.36-4.5-3-6a17.19,17.19,0,0,0-12.49-4.39,1.42,1.42,0,0,1-1.16-.51l-1.72.19c-.89.24-2.07,1-2.64.65-3.18-1.84-7,.81-10.11-1.74-.9-.76-2.37-.46-3.59-.12l-.84-.66a1.39,1.39,0,0,0-.46-1.31c-.12-.3-.25-.61-.37-.92a5.83,5.83,0,0,0-1.36-2.63.8.8,0,0,0-.1-.38,11.33,11.33,0,0,0-2.06-3.19.89.89,0,0,0-.16-.34,12.53,12.53,0,0,0-7.67-5.95.34.34,0,0,0-.36-.07c-1-1.1-2.44-1.19-3.78-1.45l-.85-.16c-5.73-1.22-11.55-1.79-17,.65-3.9,1.75-7.58,3.9-11.9,4.49-.39,0-.74.42-1.11.65h0c-1.33.48-2.77.8-3.36,2.35l-.63.22a10.92,10.92,0,0,0-4.72,7.35,2.35,2.35,0,0,1-1.78,2.13,7.72,7.72,0,0,0-5,4.6c-.46,1.19-1.15,1.46-2.39,1.15a14,14,0,0,0-4.79.09c-2.35.23-3.45,2.39-5.46,3l-.85-.22a33.27,33.27,0,0,0-13.66-4.32l-1.31-.09c-.1-.47-5-.72-7.09-.24-.27,0-2.65-.3-3.49.29l-.85.1a13.32,13.32,0,0,0-10.38,6.43c-1.7,2.79-2.83,5.91-6,7.51l-.83-.13a18.3,18.3,0,0,0-9.56-1.46c-3.22.3-5.61,2.6-8.63,3.29a.92.92,0,0,0-.37,0,4.6,4.6,0,0,0-3.18,2.13,3.46,3.46,0,0,1-2.86,1.73,8,8,0,0,0-3.61,1.47,7.1,7.1,0,0,0-2.79.71c.24,1.66,1.31,2,2.71,1.57a11.69,11.69,0,0,1,8.76.1,3.25,3.25,0,0,0,3.09-.51,27,27,0,0,1,14.25-3.34A49.08,49.08,0,0,1,821.7,107c.77.2,1.46.32,1.95-.47,2.29-3.68,6.11-4.49,9.94-5.22a35.18,35.18,0,0,1,21.84,2.48,6.57,6.57,0,0,0,5.09.52,14.79,14.79,0,0,1,9.3,0,4.29,4.29,0,0,0,3.42-.29,34.13,34.13,0,0,1,17.33-3,4,4,0,0,0,3.52-1.3c2.1-2.25,5-3,7.89-3.44a34.65,34.65,0,0,1,17.42,2,19.63,19.63,0,0,1,6.19,4.41,3,3,0,0,0,3,.83,9.22,9.22,0,0,1,6.23.57,3.22,3.22,0,0,0,2.53,0,25.66,25.66,0,0,1,17-.24c2.67.8,5.29,1.72,8.1.35,1.09-.54,2.3.47,3.45.29,5.7-.94,11.32.58,17,.49,2.62,0,5.06-1.4,7.75-1a.77.77,0,0,0,.9-.75A.83.83,0,0,0,990.63,102.55Z"/>
		</g>
		<g id="cloud_big_2">
			<path class="cls-2" d="M178.4,118.7c.27,1.86,1.46,2.3,3,1.76a13.21,13.21,0,0,1,9.83.1c1.26.55,2.31.1,3.45-.56,4.93-2.86,10.23-3.8,16-3.75,4.79,0,9.2,1.22,13.7,2.4.86.22,1.63.36,2.17-.52,2.58-4.12,6.86-5,11.15-5.86a39.36,39.36,0,0,1,24.47,2.79,7.34,7.34,0,0,0,5.7.58,16.58,16.58,0,0,1,10.42,0,4.77,4.77,0,0,0,3.83-.32A38.33,38.33,0,0,1,301.55,112a4.5,4.5,0,0,0,3.93-1.45c2.36-2.53,5.6-3.38,8.85-3.86a38.77,38.77,0,0,1,19.51,2.21c2.74,1,4.84,3,6.94,4.94a3.31,3.31,0,0,0,3.37.94,10.38,10.38,0,0,1,7,.63,3.57,3.57,0,0,0,2.83.06c6.31-2.39,12.66-2.18,19-.27,3,.9,5.92,1.93,9.07.39,1.22-.6,2.58.54,3.86.33,6.39-1.05,12.68.65,19,.55,2.94,0,5.68-1.57,8.68-1.09a.85.85,0,0,0,1-.84.91.91,0,0,0-1-.9c-4.22.65-6.07-2.34-8.36-5-1.59-1.87-4.22-2.48-6.49-3.37a7.51,7.51,0,0,0-6.8.36c-.2.52,1.8.63.44,1.49-.71.44-1.37.21-1.52-.6s-.82-.86-1.49-1.14c-1.43-.6-2.63-1.56-2.28-3.51.55-3-1.52-5.05-3.33-6.7a19.23,19.23,0,0,0-14-4.92,1.63,1.63,0,0,1-1.31-.57c7.28-1.9,16.26,2.34,19.4,9.15a9.09,9.09,0,0,1,.9,2.29c.4,2.35,1.79,2.64,3.89,2.38a16.83,16.83,0,0,1,12.16,2.87,7.34,7.34,0,0,1,2.35,2.13c1.9,3.55,5.31,4,8.71,4.46,1.5.84,3,1.67,4.5,2.54a2.11,2.11,0,0,1,1.29,2.19,1.9,1.9,0,0,1-1.85,1.39,70.87,70.87,0,0,1-8.07.79c-14.22.23-28.37,1-42.3,4.22a23.21,23.21,0,0,1-5.15.32,224.44,224.44,0,0,0-28.72,1.74c-9.61,1.24-19.31.49-28.95-.54-3.57-.39-7.12-.88-10.79-.41a39.59,39.59,0,0,1-12.52-.46,44.32,44.32,0,0,0-19.74.51c-6.8,1.76-13.7,1.08-20.53-.06A46.11,46.11,0,0,0,232,125a57.65,57.65,0,0,1-13.26-.15,40.44,40.44,0,0,0-9.07-.09,66.26,66.26,0,0,1-19.35-1.31,40.66,40.66,0,0,0-9.78-1,8,8,0,0,1-2-.14c-1-.26-2.27-.6-2.31-1.86S177.38,118.89,178.4,118.7Z"/>
			<path class="cls-3" d="M413.66,113.65c-4.22.65-6.07-2.34-8.36-5-1.59-1.87-4.22-2.48-6.49-3.37a7.51,7.51,0,0,0-6.8.36c-.2.52,1.8.63.44,1.49-.71.44-1.37.21-1.52-.6s-.82-.86-1.49-1.14c-1.43-.6-2.63-1.56-2.28-3.51.55-3-1.52-5.05-3.33-6.7a19.23,19.23,0,0,0-14-4.92,1.63,1.63,0,0,1-1.31-.57l-1.92.21c-1,.27-2.32,1.09-3,.73-3.56-2.06-7.88.91-11.32-2-1-.85-2.66-.51-4-.14l-.94-.74a1.55,1.55,0,0,0-.51-1.46l-.42-1a6.67,6.67,0,0,0-1.53-3,.88.88,0,0,0-.11-.42,12.37,12.37,0,0,0-2.31-3.57.89.89,0,0,0-.18-.38,14,14,0,0,0-8.59-6.67.39.39,0,0,0-.4-.08c-1.15-1.23-2.73-1.32-4.24-1.62l-.95-.18c-6.42-1.37-12.94-2-19.05.73-4.36,2-8.49,4.36-13.33,5-.44.06-.83.48-1.25.74h0c-1.49.54-3.11.91-3.76,2.65-.24.07-.47.16-.71.24A12.16,12.16,0,0,0,284.71,87a2.67,2.67,0,0,1-2,2.39,8.65,8.65,0,0,0-5.63,5.15c-.51,1.34-1.28,1.64-2.67,1.29A15.9,15.9,0,0,0,269,96c-2.64.26-3.87,2.68-6.12,3.42l-.95-.24a37.33,37.33,0,0,0-15.3-4.85l-1.47-.1c-.12-.53-5.66-.8-7.95-.27-.31,0-3-.33-3.91.33l-1,.11a14.93,14.93,0,0,0-11.64,7.21c-1.9,3.12-3.17,6.61-6.69,8.41l-.93-.14a20.42,20.42,0,0,0-10.7-1.64c-3.61.33-6.29,2.91-9.68,3.68a.83.83,0,0,0-.41.07,5.11,5.11,0,0,0-3.57,2.38,3.87,3.87,0,0,1-3.2,1.94,8.87,8.87,0,0,0-4,1.65,7.7,7.7,0,0,0-3.12.79c.27,1.86,1.46,2.3,3,1.76a13.21,13.21,0,0,1,9.83.1c1.26.55,2.31.1,3.45-.56,4.93-2.86,10.23-3.8,16-3.75,4.79,0,9.2,1.22,13.7,2.4.86.22,1.63.36,2.17-.52,2.58-4.12,6.86-5,11.15-5.86a39.36,39.36,0,0,1,24.47,2.79,7.34,7.34,0,0,0,5.7.58,16.58,16.58,0,0,1,10.42,0,4.77,4.77,0,0,0,3.83-.32A38.33,38.33,0,0,1,301.55,112a4.5,4.5,0,0,0,3.93-1.45c2.36-2.53,5.6-3.38,8.85-3.86a38.77,38.77,0,0,1,19.51,2.21c2.74,1,4.84,3,6.94,4.94a3.31,3.31,0,0,0,3.37.94,10.38,10.38,0,0,1,7,.63,3.57,3.57,0,0,0,2.83.06c6.31-2.39,12.66-2.18,19-.27,3,.9,5.92,1.93,9.07.39,1.22-.6,2.58.54,3.86.33,6.39-1.05,12.68.65,19,.55,2.94,0,5.68-1.57,8.68-1.09a.85.85,0,0,0,1-.84A.91.91,0,0,0,413.66,113.65Z"/>
		</g>
	</g>
</svg>