<svg xmlns="http://www.w3.org/2000/svg" viewBox="0 0 215 135">
	<defs>
		<style>
			.cls-1{fill:#fddc00;}
			.cls-2{fill:#282422;}
			.cls-3{fill:#ed2e4f;}

			#red_logo, #black_logo {
			animation: bounce 1s infinite alternate ease-in forwards ;
			}

			@keyframes bounce {
			from {transform: translateY(0px);} to {transform: translateY(5px);}
			}

			#yellow_trivia_shape, #black_trivia_shape {
			animation: shake 0.82s cubic-bezier(.36,.07,.19,.97) both;
			transform: translate3d(0, 0, 0);
			backface-visibility: hidden;
			perspective: 1000px;
			}

			@keyframes shake {
			 10%, 90% { transform: translate3d(-1px, 0, 0); }

			 20%, 80% { transform: translate3d(2px, 0, 0); }

			 30%, 50%, 70% { transform: translate3d(-4px, 0, 0); }

			 40%, 60% { transform: translate3d(4px, 0, 0); }
			 }

		</style>
	</defs>
	<g id="logo_trivia">
		<g id="black_trivia_shape">
			<path d="M81,93.73a8.53,8.53,0,0,0-2.67-6.36v0L78,87.11,77.92,87l-.06,0-4.47-4.08,0-.05h0l-.11-.1h0c-2.11-1.79-5-2.7-8.59-2.7H43.54V112.5h0l5.37,3.29H62.87v-9.27A36.64,36.64,0,0,1,63.6,112l0,.31v.1h0v0h.07l5.3,3.29H83.47q-1-9.27-6.09-15.08A8,8,0,0,0,81,93.73Z"/>
			<polygon points="98.53 80.11 98.53 80 83.6 80 83.6 112.19 83.47 112.47 86.5 115.79 100.43 115.79 100.43 84.3 98.59 80 98.53 80.11"/>
			<polygon points="38.55 80 9.58 80 9.58 94.95 9.61 94.95 14.88 98.25 16.6 98.25 16.6 112.5 16.6 112.5 16.59 112.53 21.89 115.79 35.84 115.79 35.84 98.25 42.86 98.25 42.86 84.3 38.59 79.98 38.55 80"/>
			<polygon points="124.28 80.06 124.28 80.01 122.64 84.3 121 89.21 117.92 80 102.96 80 102.95 80 101.64 84.3 112.35 115.79 125.86 115.79 128.1 112.5 128.24 112.5 139.27 80 124.3 80 124.28 80.06"/><polygon points="158.69 112.5 158.69 80 143.76 80 143.76 80.2 143.7 80.08 139.45 84.3 139.45 115.79 153.38 115.79 158.5 112.5 158.69 112.5"/>
			<polygon points="205.93 112.5 194.65 80 174.06 80 174.02 80.12 168.66 84.3 157.72 115.79 171.67 115.79 177.57 112.5 177.79 112.5 178.48 110.47 183.1 110.47 183.8 110.7 185.54 115.79 199.47 115.79 205.57 112.5 205.93 112.5"/>
		</g>
		<g id="yellow_trivia_shape">
			<polygon class="cls-1" points="17.6 111.5 30.55 111.5 30.55 93.95 37.56 93.95 37.56 81 10.58 81 10.58 93.95 17.6 93.95 17.6 111.5"/>
			<path class="cls-1" d="M71.73,96.82l.46-.32a7.52,7.52,0,0,0,3.38-6.56,8.08,8.08,0,0,0-2.89-6.37C70.75,81.87,68,81,64.61,81H44.54V111.5H57.47V99.84H58A5,5,0,0,1,62.76,103a24.41,24.41,0,0,1,1.8,8.53H78a25.86,25.86,0,0,0-5.9-14.26ZM58.36,93.55h-.89V86.48h1.34a3.57,3.57,0,0,1,2.93,1.13,3.85,3.85,0,0,1,.88,2.49C62.62,91.67,61.88,93.55,58.36,93.55Z"/>
			<rect class="cls-1" x="84.6" y="81.01" width="12.93" height="30.49"/>
			<polygon class="cls-1" points="117.2 81 104.35 81 114.72 111.5 127.53 111.5 137.88 81 125.02 81 121.11 92.69 117.2 81"/><rect class="cls-1" x="144.76" y="81.01" width="12.93" height="30.49"/>
			<path class="cls-1" d="M193.93,81H174.77L164.18,111.5h12.89l1.82-5.33h11l1.81,5.33h12.87ZM181.09,99.74l3.27-9.91,3.27,9.91Z"/>
		</g>
		<g id="black_logo">
			<path class="cls-2" d="M174.65,53.51c-.08-1-.21-1.94-.29-2.91a1.68,1.68,0,0,0-.32-.87,5.74,5.74,0,0,0-7.7-1.24c-1.71,1.2-3.41,2.43-5,3.76A9.61,9.61,0,0,0,158,56.84c0,.12,0,.31-.25.36l-1.05-2.77a3.44,3.44,0,0,0-2.57-2.32,1.73,1.73,0,0,0-1.81.43,2.92,2.92,0,0,1-1,.76,1.56,1.56,0,0,0-.9,1.21,7.91,7.91,0,0,0,.47,4.19,26.91,26.91,0,0,1,1.34,3.91l-.09.07c-.8-1.23-2.14-1.69-3.39-2.26a2,2,0,0,0-2.4.51c-.11.12-.22.29-.37.34a2.48,2.48,0,0,0-1.64,2.15,10.06,10.06,0,0,0-1.21-2.16A4.48,4.48,0,0,0,141,59.43a7.18,7.18,0,0,1-2.77-1.5,1.6,1.6,0,0,0-2.13,0,23.81,23.81,0,0,0-2.66,2.15c-.47.51-1,.92-.72,1.7a1.11,1.11,0,0,1-.06.5,9.43,9.43,0,0,1-1.71,3.12c-.18.29-.26,0-.33-.08a10,10,0,0,0-1-1.61c-.83-1.09-1.67-2.16-2.49-3.26a4.07,4.07,0,0,1-.79-1.89,1.35,1.35,0,0,1,.65-1.4,5.12,5.12,0,0,1,2.18-.79c1.64,0,2.75-1.14,4-2a1.57,1.57,0,0,0,.52-.78,3.22,3.22,0,0,0-2.05-4.05,5.46,5.46,0,0,0-2.78,0A14.36,14.36,0,0,0,124.06,52a15.65,15.65,0,0,0-4,3.48c-.21.28-.4.58-.59.85-.19-.06-.22-.2-.28-.31a10.63,10.63,0,0,0-3.91-4.31,3.69,3.69,0,0,0-2.34-.63c-1.93.13-3.43,1.21-4.93,2.27a.45.45,0,0,0-.1.13c-1.48,2.41-3,4.8-2.94,7.8,0,.2,0,.47-.18.56-.73.32-1.21,1-1.91,1.36-.32.17-.38.11-.45-.23a19.69,19.69,0,0,1-.06-3.76,5.35,5.35,0,0,0-.64-2.8,2.25,2.25,0,0,0-2.79-1.27,7,7,0,0,0-2.17,1.24,4.82,4.82,0,0,0-1.92,2.2c-.12.25-.25.5-.41.84-.18-.47-.34-.84-.47-1.22a9.25,9.25,0,0,0-1.85-3.31A2.21,2.21,0,0,0,90.29,54c-.58,0-1.13.25-1.71.28a1.16,1.16,0,0,0-1,.56c-.17.24-.34.55-.67.56a1.08,1.08,0,0,0-.83.57,14.27,14.27,0,0,0-2.67,6.7c-.45,3-.52,6-1,9a.77.77,0,0,0,.08.59A5.84,5.84,0,0,0,84.13,74a2.24,2.24,0,0,0,3-.42,1.16,1.16,0,0,1,.38-.32,3.29,3.29,0,0,0,1.94-2.57,13.91,13.91,0,0,0,.27-3c0-.2,0-.43.16-.64A5.37,5.37,0,0,0,91,68.65c1.55,1.33,2.41,1.41,3.82.33l.36-.27,1.57-1.13c.13.13.06.24,0,.34-.14.94-.31,1.88-.43,2.83a6.31,6.31,0,0,0,1,4.75c.14.18.24.46.55.39a4.89,4.89,0,0,0,2-.76c.48-.38,1-.75,1.48-1.1a2,2,0,0,0,1-1.57c0-.47.11-.93.15-1.4.08-.86.13-1.72.21-2.57,0-.2,0-.42.28-.49a.86.86,0,0,1,1.19.66c.17.71.26,1.44.46,2.14A2.31,2.31,0,0,0,108.62,72a10.89,10.89,0,0,1,1.22-.89,1.81,1.81,0,0,0,1-2.2c-.07-.25-.06-.52-.11-.78-.08-.49.06-.72.61-.71.9,0,1.8,0,2.7-.07,2.71-.09,4.55-1.59,6.06-3.69.41.54.86,1.15,1.33,1.75s1,1.15,1.46,1.75a5.24,5.24,0,0,1-2.36.56,1.74,1.74,0,0,0-1.26.52,5.47,5.47,0,0,1-1.12.84c-1.85,1.14-1.37,3.77-.34,4.65a4.12,4.12,0,0,0,2.89,1.07,12.12,12.12,0,0,0,7.56-2.56,14.71,14.71,0,0,0,2-1.85c.16.51.26.91.4,1.29A4.57,4.57,0,0,0,135.17,75a16.24,16.24,0,0,0,2-.09,7.06,7.06,0,0,0,4.18-1.54,15.68,15.68,0,0,0,2.44-2.18c-.06.89-.1,1.61-.17,2.32a.5.5,0,0,0,.43.63,2.61,2.61,0,0,0,3-.69.89.89,0,0,1,.26-.21A3.8,3.8,0,0,0,149.26,71c.13-.32.26-.26.49-.1a11.26,11.26,0,0,0,1.15.8,3,3,0,0,0,3.58-.27,4.68,4.68,0,0,1,.62-.48,6.25,6.25,0,0,0,2.2-2.28,8.92,8.92,0,0,0,.92-4.34,3,3,0,0,1,.09-1c1.25,1.77,3,3,4.42,4.45A12.13,12.13,0,0,1,164,69.34c.25.36.16.6-.17.84a3.5,3.5,0,0,1-1.45.57A10.28,10.28,0,0,0,157.32,73,3.7,3.7,0,0,0,156,75a2.31,2.31,0,0,0,2.5,3A12.49,12.49,0,0,0,165,75.9a19.56,19.56,0,0,0,5.5-5,4.7,4.7,0,0,0-.2-6,16.72,16.72,0,0,0-2.13-2.16,22.63,22.63,0,0,1-3-2.83,1.28,1.28,0,0,1-.3-.92,6.58,6.58,0,0,1,1-3,3.07,3.07,0,0,1,2.39-1.66c.78-.11.84-.13.73.69a1.79,1.79,0,0,0,.88,1.89,2,2,0,0,0,2.75-.34,1.21,1.21,0,0,1,.37-.34A2.58,2.58,0,0,0,174.65,53.51Zm-72.76,19c-.17,1-1,1.27-1.78,1.6-.49.21-.79.09-1.08-.39a6.36,6.36,0,0,1-.63-4.46,22.34,22.34,0,0,0,.45-4.62c0-.16.06-.4-.11-.46s-.27.21-.36.35a9.79,9.79,0,0,1-2.62,3.1,1.69,1.69,0,0,1-2.36,0,4.16,4.16,0,0,1-1.56-1.93c-.51-1.19-.78-2.46-1.25-3.66-.06-.18-.06-.48-.3-.47s-.35.26-.43.47a4.3,4.3,0,0,0-.23,1.38c-.2,2.32-.55,4.63-.65,7a3.06,3.06,0,0,1-.76,1.72,1.74,1.74,0,0,1-2.41.33,5.6,5.6,0,0,1-1.18-1.2.8.8,0,0,1-.17-.63c.52-3.27.51-6.6,1.15-9.86a15.78,15.78,0,0,1,1.68-4.55,3,3,0,0,1,2.52-1.64,2.21,2.21,0,0,1,2.24.93,13,13,0,0,1,1.55,3.09,26.39,26.39,0,0,0,1.12,2.75c.08.14.13.36.33.35s.24-.23.3-.37c.36-.92.7-1.85,1.06-2.77a6.9,6.9,0,0,1,1-1.89,2.69,2.69,0,0,1,2.66-1.1,1.47,1.47,0,0,1,1.07.73,4,4,0,0,1,.71,2.32c0,.53,0,1,0,1.57-.18,2.13.42,4.21.45,6.32A32.41,32.41,0,0,1,101.89,72.51Zm17.76-10.35a3.37,3.37,0,0,1-3.51,3.51c-1.21.07-2.43.12-3.65.17a3.87,3.87,0,0,0-1.26.25,1.46,1.46,0,0,0-1,1.43,7.66,7.66,0,0,0,.09,1.51,1.39,1.39,0,0,1-.85,1.67,1.79,1.79,0,0,1-2.83-1.27c-.16-.65-.27-1.31-.42-2A1.15,1.15,0,0,0,105,66.39c-.34,0-.49-.17-.61-.46a6.65,6.65,0,0,1-.41-2.76.61.61,0,0,1,.36-.52A7.19,7.19,0,0,1,106,62c.9-.34,1-.5,1-1.44-.14-3,1.28-5.36,2.76-7.74a1.07,1.07,0,0,1,.28-.28,4.7,4.7,0,0,1,5.59,0,9.7,9.7,0,0,1,4.08,8.59C119.66,61.44,119.67,61.8,119.65,62.16Zm8.06,9.71a14,14,0,0,1-4.4,1.22,5.66,5.66,0,0,1-3.2-.51c-1.31-.54-1.55-3.06-.58-3.89a1.39,1.39,0,0,1,.89-.43,10,10,0,0,0,2.94-.66,8.43,8.43,0,0,1,1.49-.25c.56-.08.67-.27.43-.79a5.7,5.7,0,0,0-.89-1.29,32.48,32.48,0,0,1-2.19-2.77,7.26,7.26,0,0,1-1.37-5.35,6.26,6.26,0,0,1,1.8-3.3,14.64,14.64,0,0,1,6.11-3.73,4.81,4.81,0,0,1,2.44-.16,2.7,2.7,0,0,1,1.95,3.47,1.41,1.41,0,0,1-.78.84,5.73,5.73,0,0,1-1.45.42,5.4,5.4,0,0,0-2.08.62.65.65,0,0,1-.27.08c-1.58.06-2.05,1.39-2.74,2.44a1.3,1.3,0,0,0,0,1,6.63,6.63,0,0,0,1.24,2.49c.83,1.11,1.75,2.15,2.54,3.29a5.4,5.4,0,0,1,1,3.37A4.87,4.87,0,0,1,127.71,71.87Zm16.58-3.41a5.63,5.63,0,0,1-5.22,4.73c-.65.08-1.31.12-1.66.15-2.84,0-4.18-1-4.89-3.43-.15-.51-.27-1-.41-1.52a4.16,4.16,0,0,1,.44-3.25c.49-.82,1-1.62,1.51-2.43a3.59,3.59,0,0,0,.6-2.18,1.11,1.11,0,0,1,.35-.91c.39-.38.76-.78,1.17-1.14a1.33,1.33,0,0,1,1.92,0,4.7,4.7,0,0,0,2.59,1.36,1.68,1.68,0,0,1,.76.46,8,8,0,0,1,2.9,6A9.49,9.49,0,0,1,144.29,68.46Zm13.39-5.58A18.12,18.12,0,0,1,157.4,67a6,6,0,0,1-1.62,2.78,2.5,2.5,0,0,1-3.18.33,20.94,20.94,0,0,1-1.75-1.21.69.69,0,0,0-1.13.18,9.15,9.15,0,0,0-.83,1.46c-.21.42-.41.84-.66,1.24a1.83,1.83,0,0,1-2.18.83c-.31-.08-.44-.2-.42-.53.13-2.06.23-4.11.36-6.17a33.14,33.14,0,0,1,.42-3.84,1.4,1.4,0,0,1,2-1.21c1.48.56,2.92,1.19,3.67,2.75a2.5,2.5,0,0,0,.74.91.59.59,0,0,0,1-.22,4.58,4.58,0,0,0,.21-3.66c-.44-1.34-1-2.67-1.42-4a5.6,5.6,0,0,1-.24-3,1.24,1.24,0,0,1,1.74-1,3.18,3.18,0,0,1,2.19,2C157.5,57.48,157.71,58.54,157.68,62.88ZM174,54.63c-.19.51-.43,1-1.06,1.1a1.84,1.84,0,0,1-1.84-.85c-.23-.37-.07-.81-.06-1.21,0-.91-.1-1-1-.94a6.27,6.27,0,0,0-4.53,2.9,7.47,7.47,0,0,0-1.14,2.9,2,2,0,0,0,.5,1.82,26.37,26.37,0,0,0,2.59,2.48,18.45,18.45,0,0,1,2.46,2.46,4,4,0,0,1,.36,4.91,12.59,12.59,0,0,1-10.65,6.18,1.75,1.75,0,0,1-1.71-2.08,2.85,2.85,0,0,1,2-2.34c1-.36,2.06-.57,3.08-.85A6.79,6.79,0,0,0,166.07,69c.21-.22.14-.43,0-.66a6.83,6.83,0,0,0-1.43-1.93c-.84-.81-1.65-1.65-2.55-2.37-3.05-2.42-2.83-6.06-2-8.52A9.44,9.44,0,0,1,163.77,51c.86-.64,1.72-1.26,2.57-1.91a4.63,4.63,0,0,1,3-1,5.11,5.11,0,0,1,4.06,1.65,1.59,1.59,0,0,1,.44,1c.07.85.19,1.71.27,2.56A3.19,3.19,0,0,1,174,54.63Z"/><path class="cls-2" d="M80.7,55.83c-.63-1.67-1.31-2.09-3.07-2a.69.69,0,0,0-.72.61c0,.24-.13.47-.42.43-.8-.11-1,.38-1.13,1,0,.25-.12.5-.18.76a36.23,36.23,0,0,0-.39,6.16,20.58,20.58,0,0,1-.74,6.48,13.62,13.62,0,0,0-.51,3.39,7.65,7.65,0,0,0-3.24-3.37c-2.1-1.44-4.26-2.77-6.48-4a61.08,61.08,0,0,1-12.88-9.21c-.62-.6-1.24-1.2-1.8-1.86-1.94-2.32-1.71-4.78-.22-7.51a3.11,3.11,0,0,1,1.28-1.15,34.57,34.57,0,0,1,3.72-1.82,38.3,38.3,0,0,1,9.75-2.49,11.82,11.82,0,0,1,5.91.66,2.45,2.45,0,0,1,1.59,1.65A4.8,4.8,0,0,0,71.84,45a1.84,1.84,0,0,0,3,.14c.11-.13.22-.3.36-.33a2,2,0,0,0,1.58-1.94,16.31,16.31,0,0,0-.37-4.4,1.24,1.24,0,0,0-.23-.44,9.46,9.46,0,0,0-6-4.32,17.18,17.18,0,0,0-9.22.19,45.23,45.23,0,0,0-13.21,6.15,19.8,19.8,0,0,0-5.19,4.68c-2.39,3.42-3.2,7.1-1.4,11a19.5,19.5,0,0,0,7.44,7.92c.83.54,1.69,1,2.47,1.63a46.1,46.1,0,0,0,7.19,4.34,40.1,40.1,0,0,1,6.89,4.29,3.75,3.75,0,0,1,.82.82l-.27.06a15.61,15.61,0,0,1-3.13.09c-2.65,0-5.29,0-7.93-.09a24.73,24.73,0,0,1-6.46-.63,3.69,3.69,0,0,0-4,.94,1.33,1.33,0,0,1-.41.29c-1.52.72-1.68,2.15-1.21,3.65a3.55,3.55,0,0,0,2.35,2.28A29.61,29.61,0,0,0,51,82.72c1.38.21,2.73.64,4.13.76,2.08.17,4.16.11,6.24.17a13.56,13.56,0,0,0,9.74-3.46,7.33,7.33,0,0,0,2.84-4.56c0-.25,0-.52.08-.88a9.15,9.15,0,0,0,.87,1.38.78.78,0,0,0,.54.35,3.29,3.29,0,0,0,3-.88,3.15,3.15,0,0,1,.54-.4A3.07,3.07,0,0,0,80.67,72a18.72,18.72,0,0,1,.55-5.62,17.66,17.66,0,0,0,.23-7A24.23,24.23,0,0,0,80.7,55.83ZM72.6,77.75a9.3,9.3,0,0,1-6.48,4,34.12,34.12,0,0,1-6.53.26,32.05,32.05,0,0,1-7-.9A37.3,37.3,0,0,1,47.24,80a11.31,11.31,0,0,1-1.14-.46,3.13,3.13,0,0,1-1.78-3.09,2.25,2.25,0,0,1,2.35-1.95,6,6,0,0,1,1.88.29,12.86,12.86,0,0,0,3.43.49c3,.07,6,.17,8.94.14a26.29,26.29,0,0,0,5.32-.16,14.23,14.23,0,0,0,2.21-.62c.43-.17.46-.35.14-.67a22.9,22.9,0,0,0-3.86-3.15c-2.47-1.61-5.13-2.87-7.68-4.31a27.32,27.32,0,0,1-4.94-3.31,7.63,7.63,0,0,0-1.34-.82,18.82,18.82,0,0,1-7.52-7.67c-2-3.9-1.13-7.59,1.39-11a15.15,15.15,0,0,1,4.19-3.79,47.79,47.79,0,0,1,11.91-5.42,16.86,16.86,0,0,1,9.92-.1,9.15,9.15,0,0,1,4.84,3.47,2.89,2.89,0,0,1,.55,1.5,25.36,25.36,0,0,1,.3,3,2.41,2.41,0,0,1-.24,1.09,1.33,1.33,0,0,1-2.39.14A8,8,0,0,1,73,42a2.72,2.72,0,0,0-1.53-1.52,13,13,0,0,0-6.94-.7,38.79,38.79,0,0,0-8.16,2,25.89,25.89,0,0,0-6.16,3.07c-2.47,1.67-3.2,4.15-2.84,7a6.54,6.54,0,0,0,2.07,3.59C50.6,56.65,52,57.65,53.2,58.8c3.24,3.06,7.19,5,10.94,7.32,2.23,1.35,4.44,2.71,6.6,4.17a5.66,5.66,0,0,1,2.69,5.11A4.51,4.51,0,0,1,72.6,77.75ZM80.41,68a16.77,16.77,0,0,0-.24,4.36,2.54,2.54,0,0,1-3.09,2.56.9.9,0,0,1-.5-.42,5.81,5.81,0,0,1-.92-4.07,13.52,13.52,0,0,1,.63-3,10.82,10.82,0,0,0,.46-3.2c.06-2.38,0-4.76.22-7.13a19.33,19.33,0,0,1,.38-2.15.6.6,0,0,1,.66-.54,1.81,1.81,0,0,1,2.06,1.29,10.06,10.06,0,0,1,.66,2.59,19.78,19.78,0,0,1,.46,4.12A40.7,40.7,0,0,1,80.41,68Z"/>
			<path class="cls-2" d="M87.54,37.63a20.26,20.26,0,0,0,3.56.44.69.69,0,0,1,.74.64A7.2,7.2,0,0,1,92,40.1c0,1.65,0,3.3,0,4.94a2.17,2.17,0,0,0,.21,1.15,1.86,1.86,0,0,0,2.51.78c.84-.42,1.46-1.15,2.28-1.61a.64.64,0,0,0,.28-.52c0-.39.1-.78.12-1.18.11-1.79.22-3.58.32-5.38,0-.3.07-.52.45-.56A5.17,5.17,0,0,0,101,36.45a5.29,5.29,0,0,1,1.31-.85,2.68,2.68,0,0,1-1.58,1.8c-.18.08-.4.12-.37.41,0,.58,0,1.16.09,1.74a1.26,1.26,0,0,0,.7,1.15c.75.23.68.77.7,1.32,0,.31,0,.63,0,.95a11.19,11.19,0,0,0,.41,2.88,1.87,1.87,0,0,0,3.31.7,1,1,0,0,1,.44-.32,2.14,2.14,0,0,0,1.43-1.88,14.09,14.09,0,0,0-.26-2.34c0-.43.1-.75.61-.74s.33.46.3.71a12.19,12.19,0,0,0-.14,2.63,2,2,0,0,0,1.79,2,5.46,5.46,0,0,0,1.51,0c.27,0,.44-.1.44-.39,0-.54.31-.7.8-.67s.72-.24.76-.73c.08-.9.2-1.81.31-2.71.56.82,1.09,1.61,1.66,2.38a3.87,3.87,0,0,0,2.41,1.62c3,.53,5.83.41,8.45-1.32a39.29,39.29,0,0,0,3.51-2.51,3.11,3.11,0,0,0,1.1-3.22c0-.19-.06-.39-.29-.43-1-.22-2-.53-3.06.21A15,15,0,0,1,124,40.73a4.57,4.57,0,0,1-4.2-.5,9.68,9.68,0,0,0,2.47-1.08c.75-.5,1.48-1,2.2-1.55,1.73-1.28,3-2.85,3-5.13,0-2.54-.57-4.83-3-6.19A3.17,3.17,0,0,0,121.6,26a14,14,0,0,0-4.8,3.25A14.34,14.34,0,0,0,114,33.72c-.08.18-.11.41-.34.56,0-.31,0-.58,0-.84.07-1.6.42-3.19.4-4.8a2.46,2.46,0,0,0-1.41-2.25,1.41,1.41,0,0,0-1.73.13,7.51,7.51,0,0,1-1.55,1.13.93.93,0,0,0-.49.94,45.53,45.53,0,0,1-.55,6.59c0,.22,0,.49-.36.46s-.29-.25-.29-.46c0-.49,0-1,0-1.46.1-1.49.24-3,.34-4.48a2.06,2.06,0,0,0-2.26-2.07c-.89.18-1.2,1.23-2.12,1.41-.27.05-.38.43-.49.71a5.41,5.41,0,0,0-.4,1.63c0,.17,0,.5-.31.38a4.35,4.35,0,0,0-2.73.31,2.88,2.88,0,0,1-1.3.25c.48-1.76-.11-3-1.62-3.52a.85.85,0,0,0-.89.14,7.71,7.71,0,0,1-1,.8,4.28,4.28,0,0,0-2.12,2.56c-.11.41-.32.48-.68.41-.68-.15-1.36-.28-2-.4a3,3,0,0,0-3.05.81,2.73,2.73,0,0,1-.73.51,3.12,3.12,0,0,0-1.41,2.25.57.57,0,0,0,.17.52A4.93,4.93,0,0,0,87.54,37.63Zm27.21-1.14a2.84,2.84,0,0,1,0-.51,19.58,19.58,0,0,1,3.67-7.3A7.56,7.56,0,0,1,122,26.42a2.43,2.43,0,0,1,1.85.14,4.82,4.82,0,0,1,2.79,3.31,8.86,8.86,0,0,1,.22,3.55,5.4,5.4,0,0,1-2.24,3.44,8.49,8.49,0,0,1-5.09,2c-.57,0-.74.27-.66.83s.53.93,1,1.23a5.36,5.36,0,0,0,5.44-.15,19.4,19.4,0,0,0,2.59-1.57c.75-.53,1.47-.16,2.2,0,.16,0,.15.19.18.31a2.17,2.17,0,0,1-.45,1.85,5.79,5.79,0,0,1-1.51,1.32c-.64.43-1.28.85-1.91,1.29a3.26,3.26,0,0,1-1.21.4,21.11,21.11,0,0,1-4,.48,5,5,0,0,1-4.66-2.46A9.41,9.41,0,0,1,114.75,36.49ZM104.55,33c.08-1.2.11-2.4.26-3.59a3.8,3.8,0,0,1,.34-1.18.94.94,0,0,1,1.2-.53,1.56,1.56,0,0,1,1.15,1.76,48.74,48.74,0,0,0-.36,5.26c0,1.37,0,1.37,1.39,1.45a4.34,4.34,0,0,0,.51,0c1,0,1.11-.2,1.21-1.19.17-1.77.38-3.53.58-5.3a7.67,7.67,0,0,0,0-1.79.89.89,0,0,1,.37-1,1.14,1.14,0,0,1,1.22,0,2,2,0,0,1,1.07,2c0,.17,0,.34,0,.53-.13,1.41-.29,2.85-.39,4.28a4,4,0,0,0,1,3.12.72.72,0,0,1,0,1.14,3.14,3.14,0,0,0-.87,2.28c-.15,1.46-.33,2.9-.47,4.36,0,.35-.15.51-.51.47s-.64,0-1-.09A1.49,1.49,0,0,1,110,43.44a14.57,14.57,0,0,1,.15-2.47,5.08,5.08,0,0,0,0-.78c0-.37-.18-.59-.6-.57a16.06,16.06,0,0,0-2,.08.82.82,0,0,0-.76.87,11.21,11.21,0,0,0,.19,3.27,1.14,1.14,0,0,1,0,.45,1.61,1.61,0,0,1-1.09,1.42,1.57,1.57,0,0,1-1.64-1.11,10.39,10.39,0,0,1-.36-2.55c0-.65-.06-1.3-.09-2a.7.7,0,0,0-.6-.76.84.84,0,0,1-.69-.72,6.83,6.83,0,0,1,0-1.63.35.35,0,0,1,.21-.3C104.18,35.91,104.46,34.51,104.55,33Zm-15.17-.78,2.85.53a2.1,2.1,0,0,0,1.89-.43,2,2,0,0,0,.54-1.21A3.75,3.75,0,0,1,96,29a.65.65,0,0,1,.81-.07,1.88,1.88,0,0,1,1.09,2.56c-.23.73,0,1,.74.87a8.33,8.33,0,0,0,1.63-.43,5.58,5.58,0,0,1,1.09-.25,1.62,1.62,0,0,1,1.67.79,1.53,1.53,0,0,1-.23,1.69A4.44,4.44,0,0,1,100,36.06c-.54.1-1.08.15-1.61.27-.89.21-1.06.42-1.13,1.33-.11,1.55-.19,3.1-.29,4.65-.05.65-.13,1.31-.13,2,0,1-.92,1.27-1.65,1.28S94,45,94,44.18c-.06-1.92.12-3.85,0-5.78a1.84,1.84,0,0,0,0-.33c-.37-1.7-.22-1.54-1.76-1.65a17,17,0,0,1-2.94-.37,4,4,0,0,1-2.12-1.29.7.7,0,0,1-.21-.61A2.32,2.32,0,0,1,89.38,32.25Z"/>
			<path class="cls-2" d="M115.11,57.35a3.2,3.2,0,0,0-1.36-1.29.77.77,0,0,0-1,.15,4,4,0,0,0-1,1.72,12.54,12.54,0,0,0-.41,2.9c0,.82.24,1.1,1.39,1a10.91,10.91,0,0,0,3-.61c.64-.22.78-.53.59-1.17A13.59,13.59,0,0,0,115.11,57.35Zm-1.27,3.84a7.79,7.79,0,0,1-1.67.13c-.24,0-.32-.14-.32-.36s0-.48,0-.73a13.5,13.5,0,0,1,.33-2.1c.07-.3.2-.37.44-.13a7,7,0,0,1,1.48,2.85C114.19,61.08,114,61.15,113.84,61.19Z"/>
			<path class="cls-2" d="M139.7,64.19a1.34,1.34,0,0,0-2,0,5.09,5.09,0,0,0-1.29,3.44c-.1,1.12.12,1.32,1.23,1.3,1.46,0,1.86-.32,2.32-1.7a6.92,6.92,0,0,1,.3-.91A1.64,1.64,0,0,0,139.7,64.19Zm-1.42,3A6,6,0,0,0,138,68a.49.49,0,0,1-.53.45c-.55,0-.6,0-.56-1a7.57,7.57,0,0,1,.33-1.66c.13-.41.31-.39.58-.13A1.21,1.21,0,0,1,138.28,67.15Z"/>
			<path class="cls-2" d="M119.84,35.28a13.32,13.32,0,0,0,2-.62,3.27,3.27,0,0,0,2.11-3,1.4,1.4,0,0,0-.67-1.48,1.45,1.45,0,0,0-1.61.51,2.44,2.44,0,0,0-.35.43c-.42.6-.84,1.19-1.23,1.8a7.75,7.75,0,0,0-.81,1.84C119.17,35.22,119.35,35.39,119.84,35.28Zm1.54-3.3c.08-.11.16-.24.31-.21s.19.2.23.34a1.93,1.93,0,0,1-2,2.55A8.44,8.44,0,0,1,121.38,32Z"/>
		</g>
		<g id="red_logo">
			<path class="cls-3" d="M101.8,60.2c-.18,2.13.42,4.21.45,6.32a32.41,32.41,0,0,1-.36,6c-.17,1-1,1.27-1.78,1.6-.49.21-.79.09-1.08-.39a6.36,6.36,0,0,1-.63-4.46,22.34,22.34,0,0,0,.45-4.62c0-.16.06-.4-.11-.46s-.27.21-.36.35a9.79,9.79,0,0,1-2.62,3.1,1.69,1.69,0,0,1-2.36,0,4.16,4.16,0,0,1-1.56-1.93c-.51-1.19-.78-2.46-1.25-3.66-.06-.18-.06-.48-.3-.47s-.35.26-.43.47a4.3,4.3,0,0,0-.23,1.38c-.2,2.32-.55,4.63-.65,7a3.06,3.06,0,0,1-.76,1.72,1.74,1.74,0,0,1-2.41.33,5.6,5.6,0,0,1-1.18-1.2.8.8,0,0,1-.17-.63c.52-3.27.51-6.6,1.15-9.86a15.78,15.78,0,0,1,1.68-4.55,3,3,0,0,1,2.52-1.64,2.21,2.21,0,0,1,2.24.93,13,13,0,0,1,1.55,3.09,26.39,26.39,0,0,0,1.12,2.75c.08.14.13.36.33.35s.24-.23.3-.37c.36-.92.7-1.85,1.06-2.77a6.9,6.9,0,0,1,1-1.89,2.69,2.69,0,0,1,2.66-1.1,1.47,1.47,0,0,1,1.07.73,4,4,0,0,1,.71,2.32C101.8,59.16,101.81,59.68,101.8,60.2Z"/>
			<path class="cls-3" d="M169.32,48.08a5.11,5.11,0,0,1,4.06,1.65,1.59,1.59,0,0,1,.44,1c.07.85.19,1.71.27,2.56a3.19,3.19,0,0,1-.11,1.34c-.19.51-.43,1-1.06,1.1a1.84,1.84,0,0,1-1.84-.85c-.23-.37-.07-.81-.06-1.21,0-.91-.1-1-1-.94a6.27,6.27,0,0,0-4.53,2.9,7.47,7.47,0,0,0-1.14,2.9,2,2,0,0,0,.5,1.82,26.37,26.37,0,0,0,2.59,2.48,18.45,18.45,0,0,1,2.46,2.46,4,4,0,0,1,.36,4.91,12.59,12.59,0,0,1-10.65,6.18,1.75,1.75,0,0,1-1.71-2.08,2.85,2.85,0,0,1,2-2.34c1-.36,2.06-.57,3.08-.85A6.79,6.79,0,0,0,166.07,69c.21-.22.14-.43,0-.66a6.83,6.83,0,0,0-1.43-1.93c-.84-.81-1.65-1.65-2.55-2.37-3.05-2.42-2.83-6.06-2-8.52A9.44,9.44,0,0,1,163.77,51c.86-.64,1.72-1.26,2.57-1.91A4.63,4.63,0,0,1,169.32,48.08Z"/>
			<path class="cls-3" d="M130.59,68a4.87,4.87,0,0,1-2.88,3.9,14,14,0,0,1-4.4,1.22,5.66,5.66,0,0,1-3.2-.51c-1.31-.54-1.55-3.06-.58-3.89a1.39,1.39,0,0,1,.89-.43,10,10,0,0,0,2.94-.66,8.43,8.43,0,0,1,1.49-.25c.56-.08.66-.27.43-.79a5.7,5.7,0,0,0-.89-1.29,32.48,32.48,0,0,1-2.19-2.77,7.26,7.26,0,0,1-1.37-5.35,6.26,6.26,0,0,1,1.8-3.3,14.64,14.64,0,0,1,6.11-3.73,4.81,4.81,0,0,1,2.44-.16,2.7,2.7,0,0,1,1.95,3.47,1.41,1.41,0,0,1-.78.84,5.73,5.73,0,0,1-1.45.42,5.4,5.4,0,0,0-2.08.62.65.65,0,0,1-.27.08c-1.58.06-2.05,1.39-2.74,2.44a1.3,1.3,0,0,0,0,1,6.63,6.63,0,0,0,1.24,2.49c.83,1.11,1.75,2.15,2.54,3.29A5.4,5.4,0,0,1,130.59,68Z"/>
			<path class="cls-3" d="M119.67,61.09c0,.35,0,.71,0,1.07a3.37,3.37,0,0,1-3.51,3.51c-1.21.07-2.43.12-3.65.17a3.87,3.87,0,0,0-1.26.25,1.46,1.46,0,0,0-1,1.43,7.66,7.66,0,0,0,.09,1.51,1.39,1.39,0,0,1-.85,1.67,1.79,1.79,0,0,1-2.83-1.27c-.16-.65-.27-1.31-.42-2A1.15,1.15,0,0,0,105,66.39c-.34,0-.49-.17-.61-.46a6.65,6.65,0,0,1-.41-2.76.61.61,0,0,1,.36-.52A7.19,7.19,0,0,1,106,62c.9-.34,1-.5,1-1.44-.14-3,1.28-5.36,2.76-7.74a1.07,1.07,0,0,1,.28-.28,4.7,4.7,0,0,1,5.59,0A9.7,9.7,0,0,1,119.67,61.09Zm-8.35-.26c0,.82.24,1.1,1.39,1a10.91,10.91,0,0,0,3-.61c.64-.22.78-.53.59-1.17a13.59,13.59,0,0,0-1.14-2.73,3.2,3.2,0,0,0-1.36-1.29.77.77,0,0,0-1,.15,4,4,0,0,0-1,1.72A12.54,12.54,0,0,0,111.32,60.83Z"/>
			<path class="cls-3" d="M157.68,62.88A18.12,18.12,0,0,1,157.4,67a6,6,0,0,1-1.62,2.78,2.5,2.5,0,0,1-3.18.33,20.94,20.94,0,0,1-1.75-1.21.69.69,0,0,0-1.13.18,9.15,9.15,0,0,0-.83,1.46c-.21.42-.41.84-.66,1.24a1.83,1.83,0,0,1-2.18.83c-.31-.08-.44-.2-.42-.53.13-2.06.23-4.11.36-6.17a33.14,33.14,0,0,1,.42-3.84,1.4,1.4,0,0,1,2-1.21c1.48.56,2.92,1.19,3.67,2.75a2.5,2.5,0,0,0,.74.91.59.59,0,0,0,1-.22,4.58,4.58,0,0,0,.21-3.66c-.44-1.34-1-2.67-1.42-4a5.6,5.6,0,0,1-.24-3,1.24,1.24,0,0,1,1.74-1,3.18,3.18,0,0,1,2.19,2C157.5,57.48,157.71,58.54,157.68,62.88Z"/>
			<path class="cls-3" d="M137.41,73.34c-2.84,0-4.18-1-4.89-3.43-.15-.51-.27-1-.41-1.52a4.16,4.16,0,0,1,.44-3.25c.49-.82,1-1.62,1.51-2.43a3.59,3.59,0,0,0,.6-2.18,1.11,1.11,0,0,1,.35-.91c.39-.38.76-.78,1.17-1.14a1.33,1.33,0,0,1,1.92,0,4.7,4.7,0,0,0,2.59,1.36,1.68,1.68,0,0,1,.76.46,8,8,0,0,1,2.9,6,9.49,9.49,0,0,1-.06,2.13,5.63,5.63,0,0,1-5.22,4.73C138.42,73.27,137.76,73.31,137.41,73.34Zm.2-4.41c1.46,0,1.86-.32,2.32-1.7a6.92,6.92,0,0,1,.3-.91,1.64,1.64,0,0,0-.53-2.13,1.34,1.34,0,0,0-2,0,5.09,5.09,0,0,0-1.29,3.44C136.28,68.75,136.5,69,137.61,68.93Z"/>
			<path class="cls-3" d="M59.59,82a32.05,32.05,0,0,1-7-.9A37.3,37.3,0,0,1,47.24,80a11.31,11.31,0,0,1-1.14-.46,3.13,3.13,0,0,1-1.78-3.09,2.25,2.25,0,0,1,2.35-1.95,6,6,0,0,1,1.88.29,12.86,12.86,0,0,0,3.43.49c3,.07,6,.17,8.94.14a26.31,26.31,0,0,0,5.32-.16,14.23,14.23,0,0,0,2.21-.62c.43-.17.46-.35.14-.67a22.9,22.9,0,0,0-3.86-3.15c-2.47-1.61-5.13-2.87-7.68-4.31a27.32,27.32,0,0,1-4.94-3.31,7.63,7.63,0,0,0-1.34-.82,18.82,18.82,0,0,1-7.52-7.67c-2-3.9-1.13-7.59,1.39-11a15.15,15.15,0,0,1,4.19-3.79,47.79,47.79,0,0,1,11.91-5.42,16.86,16.86,0,0,1,9.92-.1,9.15,9.15,0,0,1,4.84,3.47,2.89,2.89,0,0,1,.55,1.5,25.36,25.36,0,0,1,.3,3,2.41,2.41,0,0,1-.24,1.09,1.33,1.33,0,0,1-2.39.14A8,8,0,0,1,73,42a2.72,2.72,0,0,0-1.53-1.52,13,13,0,0,0-6.94-.7,38.79,38.79,0,0,0-8.16,2,25.89,25.89,0,0,0-6.16,3.07c-2.47,1.67-3.2,4.15-2.84,7a6.54,6.54,0,0,0,2.07,3.59C50.6,56.65,52,57.65,53.2,58.8c3.24,3.06,7.19,5,10.94,7.32,2.23,1.35,4.44,2.71,6.6,4.17a5.66,5.66,0,0,1,2.69,5.11,4.51,4.51,0,0,1-.83,2.35,9.3,9.3,0,0,1-6.48,4A34.12,34.12,0,0,1,59.59,82Z"/>
			<path class="cls-3" d="M81.19,62.37A40.7,40.7,0,0,1,80.41,68a16.77,16.77,0,0,0-.24,4.36,2.54,2.54,0,0,1-3.09,2.56.9.9,0,0,1-.5-.42,5.81,5.81,0,0,1-.92-4.07,13.52,13.52,0,0,1,.63-3,10.82,10.82,0,0,0,.46-3.2c.06-2.38,0-4.76.22-7.13a19.33,19.33,0,0,1,.38-2.15.6.6,0,0,1,.66-.54,1.81,1.81,0,0,1,2.06,1.29,10.06,10.06,0,0,1,.66,2.59A19.78,19.78,0,0,1,81.19,62.37Z"/>
			<path class="cls-3" d="M121.24,44.82a5,5,0,0,1-4.66-2.46,9.41,9.41,0,0,1-1.83-5.87,2.84,2.84,0,0,1,0-.51,19.58,19.58,0,0,1,3.67-7.3A7.56,7.56,0,0,1,122,26.42a2.43,2.43,0,0,1,1.85.14,4.82,4.82,0,0,1,2.79,3.31,8.86,8.86,0,0,1,.22,3.55,5.4,5.4,0,0,1-2.24,3.44,8.49,8.49,0,0,1-5.09,2c-.57,0-.74.27-.66.83s.53.93,1,1.23a5.36,5.36,0,0,0,5.44-.15,19.4,19.4,0,0,0,2.59-1.57c.75-.53,1.47-.16,2.2,0,.16,0,.15.19.18.31a2.17,2.17,0,0,1-.45,1.85,5.79,5.79,0,0,1-1.51,1.32c-.64.43-1.28.85-1.91,1.29a3.26,3.26,0,0,1-1.21.4A21.11,21.11,0,0,1,121.24,44.82ZM124,31.63a1.4,1.4,0,0,0-.67-1.48,1.45,1.45,0,0,0-1.61.51,2.44,2.44,0,0,0-.35.43c-.42.6-.84,1.19-1.23,1.8a7.75,7.75,0,0,0-.81,1.84c-.15.49,0,.66.52.55a13.32,13.32,0,0,0,2-.62A3.27,3.27,0,0,0,124,31.63Z"/>
			<path class="cls-3" d="M113.44,29.36c-.12,1.41-.26,2.85-.35,4.28a4,4,0,0,0,1,3.11.72.72,0,0,1,0,1.14,3.1,3.1,0,0,0-.84,2.29c-.15,1.46-.31,2.91-.43,4.36,0,.35-.15.52-.51.48s-.64,0-1-.08A1.5,1.5,0,0,1,110,43.42a14.44,14.44,0,0,1,.13-2.46,5.21,5.21,0,0,0,0-.79c0-.37-.18-.59-.6-.56a16.08,16.08,0,0,0-2,.1.8.8,0,0,0-.75.88,10.89,10.89,0,0,0,.22,3.27,1.35,1.35,0,0,1,0,.45A1.6,1.6,0,0,1,106,45.73a1.54,1.54,0,0,1-1.64-1.08A10,10,0,0,1,104,42.1c0-.65-.07-1.31-.11-2,0-.39-.16-.68-.6-.75a.85.85,0,0,1-.71-.72,6.75,6.75,0,0,1-.05-1.62.33.33,0,0,1,.2-.31c1.49-.79,1.75-2.19,1.83-3.67.06-1.2.08-2.4.22-3.59a4,4,0,0,1,.32-1.18,1,1,0,0,1,1.21-.55,1.58,1.58,0,0,1,1.16,1.75,48.71,48.71,0,0,0-.3,5.27c0,1.37,0,1.37,1.4,1.43a4.34,4.34,0,0,0,.51,0c1-.06,1.11-.22,1.19-1.21.16-1.77.35-3.54.53-5.3a7.23,7.23,0,0,0,0-1.8.9.9,0,0,1,.36-1,1.18,1.18,0,0,1,1.23,0,2,2,0,0,1,1.08,2Z"/>
			<path class="cls-3" d="M89.38,32.25l2.85.53a2.1,2.1,0,0,0,1.89-.43,2,2,0,0,0,.54-1.21A3.75,3.75,0,0,1,96,29a.65.65,0,0,1,.81-.07,1.88,1.88,0,0,1,1.09,2.56c-.23.74,0,1,.74.87a8.33,8.33,0,0,0,1.63-.43,5.58,5.58,0,0,1,1.09-.25,1.62,1.62,0,0,1,1.67.79,1.53,1.53,0,0,1-.23,1.69A4.44,4.44,0,0,1,100,36.06c-.54.1-1.08.15-1.61.27-.89.21-1.06.42-1.13,1.33-.11,1.55-.19,3.1-.29,4.65-.05.65-.13,1.31-.13,2,0,1-.92,1.27-1.65,1.28S94,45,94,44.18c-.06-1.92.12-3.85,0-5.78a1.84,1.84,0,0,0,0-.33c-.37-1.7-.22-1.54-1.76-1.65a17,17,0,0,1-2.94-.37,4,4,0,0,1-2.12-1.29.7.7,0,0,1-.21-.61A2.32,2.32,0,0,1,89.38,32.25Z"/>
		</g>
	</g>
</svg>