<svg xmlns="http://www.w3.org/2000/svg" viewBox="0 0 195 225"><defs><style>.cls-1{opacity:0.1;}.cls-2{fill:#ccc6c9;}.cls-10,.cls-11,.cls-12,.cls-13,.cls-14,.cls-2,.cls-3,.cls-4,.cls-5,.cls-6,.cls-7,.cls-8,.cls-9{stroke:#000;}.cls-10,.cls-12,.cls-13,.cls-14,.cls-2,.cls-3,.cls-4,.cls-5,.cls-6,.cls-7,.cls-8,.cls-9{stroke-linecap:round;}.cls-11,.cls-12,.cls-13,.cls-2,.cls-3,.cls-4,.cls-5,.cls-7,.cls-9{stroke-miterlimit:10;}.cls-10,.cls-2,.cls-3,.cls-4,.cls-5,.cls-6,.cls-7,.cls-8,.cls-9{stroke-width:0.5px;}.cls-3{fill:#ffda21;}.cls-10,.cls-11,.cls-4{fill:#fff;}.cls-13,.cls-14,.cls-5,.cls-6{fill:none;}.cls-10,.cls-14,.cls-6,.cls-8{stroke-linejoin:round;}.cls-7{fill:#d5b07d;}.cls-8{fill:#000023;}.cls-9{fill:#6fa5cd;}.cls-12{fill:#d4eefa;}</style></defs><g id="bad_homer"><g id="bad_homer_shadow"><path class="cls-1" d="M184,169.81c-4.55-4.29-7.26-5-12.64-3.41-9.6,2.87-18.91,1.9-26.94-2.79C136.58,159,131,152,127.92,146.92c1.76-2.78,2.5-4.51,2.17-5.13a.7.7,0,0,0-.21-.24c-.41-1.32-2.86-7.81-13-12.94a19.88,19.88,0,0,1,3.36-1.9c2.32-1.12,3.64-2.35,4-3.74a3.89,3.89,0,0,0-.63-3.21,3.23,3.23,0,0,0-1.29-1.15c.18-1.73.65-8.93-3.08-14.26a15.09,15.09,0,0,0,2.32-5.64A12.51,12.51,0,0,0,130.91,91a10.3,10.3,0,0,0,0-7.93c.09-.2.18-.4.26-.62.94-2.52.39-3.62,0-4.42a1.41,1.41,0,0,1-.19-1.33c4-10.75,4.3-20.06.82-27.67a24.2,24.2,0,0,0-3.47-5.5,12.74,12.74,0,0,0-8-13.41,14.34,14.34,0,0,0-5.62-1,12.94,12.94,0,0,0-3.54-2.13c-6.29-2.47-13.72.76-16.55,7.2a15.65,15.65,0,0,0-.67,2.15A27.47,27.47,0,0,0,80.36,51.37c-.74,2-1.42,6.13-2.36,11.88-.45,2.74-.94,5.74-1.52,9-.47-1.7-1-4.15-1.44-5.87-1.15-4.89-1.15-4.89-1.65-4.92a.57.57,0,0,0-.45.23c-.44.59-4.07,13.48-3.56,14.91a.47.47,0,0,0,.45.32l.16,0a.52.52,0,0,0,.33-.62c-.24-1,2-9.49,3-12.78.22.86.49,2,.74,3.11a68,68,0,0,0,2,7.75l-.36,2a2.56,2.56,0,0,0,0,.27l-.11,0c-1.38-.36-3.49-.25-5.67,2.32-2.31,2.73-2.5,5.88-.5,8.45a7,7,0,0,0,3,2.23c-.15.34-.3.66-.46,1-1.26-.21-5.25-.59-7.35,2.51A5.78,5.78,0,0,0,64,94.22c-.55-.64-1.12-1.28-1.76-1.9-1.28-1.25-7-3.52-14.52-3.09-6.49.37-15.95,2.94-24.19,13a0,0,0,0,1,0,0,1.3,1.3,0,0,0-.12.94,26.89,26.89,0,0,0,2.72,7.94,58.18,58.18,0,0,0-6.4,10.73c-2,4.79-3.26,16.77,1.25,26.7C13.87,155.85,6.42,165.5,5.46,175c-.38,3.75,1.72,7.71,5.47,11.59-.06,21.18,25,46.55,25.3,46.81a.52.52,0,0,0,.35.14.48.48,0,0,0,.5-.5H91.34a.49.49,0,0,0,.93,0h1.11v0a.49.49,0,0,0,.53.46.5.5,0,0,0,.47-.53v-.14h31.35l.06.17a.48.48,0,0,0,.47.33.52.52,0,0,0,.17,0,.5.5,0,0,0,.3-.64c0-.06-2-5.6-3.75-9.29-.65-1.43-6.19-13.44-9.45-16,.52-.72.86-1.22,1-1.45,2.82-.82,4.47-1.4,4.54-1.42l.28-.1,0-.29c0-.28,1.1-6.92-1-19.12-.05-.24-.09-.47-.13-.7A47,47,0,0,0,139.44,195a16.57,16.57,0,0,1,4.19,1.65,24.48,24.48,0,0,0,7.48,2.63c3.43.65,5.32,1.49,5.76,2.55a2.29,2.29,0,0,1-.5,2.14c-2.59,3.93-2.63,6.87-.12,8.76a4.77,4.77,0,0,0,2.88.93,6.61,6.61,0,0,0,2.21-.41,11,11,0,0,0,6.54-7.52,13.42,13.42,0,0,0-.17-6.94,3.82,3.82,0,0,1-.22-1.26,7.63,7.63,0,0,1,2.61-2.27c.51-.29,1-.59,1.4-.86a7.22,7.22,0,0,0,1.23,6.57,4.76,4.76,0,0,0,4.5,1.81,5.36,5.36,0,0,0,3.58-2.68c1.81-3.06,1.63-7.84.94-10.11s-2.84-3.34-4.94-4.43c-1.83-1-3.55-1.86-3.85-3.33-.24-1.2.64-3.42,1.84-4.64a1.86,1.86,0,0,1,1.51-.74c.28.05.68.15,1.13.27a16.07,16.07,0,0,0,4.75.71,4.26,4.26,0,0,0,3.65-2.75C186.18,174.07,186.39,172.08,184,169.81Zm-66.17-134c-.61-.27-1.23-.53-1.87-.76a27.56,27.56,0,0,0-8.53-1.72,9.37,9.37,0,0,1,2.51-2.06,10.25,10.25,0,0,1,4.41-1.21A11.69,11.69,0,0,1,117.82,35.81Zm9.56,6.64a28.22,28.22,0,0,0-8.39-6.1h0a12.69,12.69,0,0,0-3.24-6.28,14.09,14.09,0,0,1,4.17.94A11.76,11.76,0,0,1,127.38,42.45ZM110.76,27.84a12.17,12.17,0,0,1,2.44,1.32,10.82,10.82,0,0,0-3.76,1.24,10.25,10.25,0,0,0-3.28,2.91A27.42,27.42,0,0,0,95.1,35.7a8.15,8.15,0,0,1,.4-1.19C98.12,28.56,105,25.56,110.76,27.84Z"/></g><g id="bad_homer-2" data-name="bad_homer"><path class="cls-2" d="M111,154.28c.83-1,9.42-12.84,24.24-12.37,1.17,0-2.61,5.73-2.61,5.73Z"/><path class="cls-3" d="M178.21,193.08a22.71,22.71,0,0,1-2.59,1.71,8.37,8.37,0,0,0-2.76,2.41c-.6.83,1.5,3.53.3,8.38-1.37,5.57-7.42,9.28-10.84,6.72-2.13-1.6-2.39-4.11.23-8.08,1.88-2.84-.07-4.41-5.58-5.47-6.52-1.24-7.46-3.31-11.64-4.27-30.8-7-35.23-34.26-35.24-38.59S129,138.34,130.6,142.16s8,15.28,19.32,21.88,22.12,4.4,27.34,2.84,7.76-.85,12.16,3.3c3.74,3.53,1.26,6.88-1.5,7.12-1.9.17-4.63-.77-5.75-1-2-.37-4.35,3.89-3.93,6,.69,3.47,7.59,3.85,8.8,7.81,1,3.22.82,11.11-4.14,12.15-3,.63-7.08-3.2-4.69-9.18a7.7,7.7,0,0,0,.19-3.22"/><path class="cls-4" d="M110.09,155.62a30.06,30.06,0,0,1,25.14-13.71s-2.09-8.51-15.7-14.19c-7.66-3.2-9.58-.16-11.16,6.53C107.14,139.45,104.45,146.77,110.09,155.62Z"/><path class="cls-5" d="M165.81,174.94s-1.23,6.6,2.81,8.9c5.38,3.06,2,10.36-3.07,8.91-5.56-1.59-7.49-7.15-7.49-7.15a4.68,4.68,0,0,1-5.06.11"/><path class="cls-4" d="M115.35,146.65l-.46-20.39-8.25.25s-1,4.43-.76,6.77c.26,2.13,1.42,1.45,1.42,1.45s1.46-.64,1.8-.32c1.46,1.37.82,8.37.82,8.37l5.7,3.87"/><path class="cls-3" d="M86.59,51.54c-1.18,3.2-2.25,12.35-4.59,24.94-2.72,14.61-3.6,14.29-8.61,21.11-2.1,2.87,14.38,41.68,24.75,47.79l8.75-9.6s-3.84-5.65,3.79-18.22c3.92-6.46,9.54-7.23,13.59-13A14.14,14.14,0,0,0,127,97.42c.57-7.11,6.95-8.56,9.41-15.19,1.46-3.91-.89-3.91-.19-5.75,8.27-22.15-.63-35.74-14.7-41A27.21,27.21,0,0,0,86.59,51.54Z"/><path class="cls-6" d="M90.47,75.06s.14-9.55-1-11.73S83.23,75,82.55,74.59,79.43,62,79.14,62s-4,13.25-3.52,14.48"/><path class="cls-7" d="M127.58,118.92s2.09-13.87-8.07-18.57c-5.14-2.38-8.57-2.85-12.62-4.2-8.37-2.8-14.77.07-18.5,4.19S79,116.51,90,124.9c13.29,10.14,25.39,3.26,25.39,3.26"/><path class="cls-7" d="M122.79,118.89s4.67-1.27,6.19,1.14.51,4.44-3.19,6.23-3.57,2.09-5.78,4-7,3.39-7.45-4.29"/><path class="cls-8" d="M123.31,122.67s-1,.54-1.55.94-.42,1-.51,1.72c-.15,1.2-1.6,2.18-2.55.93S119.21,122.06,123.31,122.67Z"/><path class="cls-5" d="M133.56,43.55a12.28,12.28,0,0,0-7.69-13c-6.31-2.48-14.14-.66-15.91,8.75"/><path class="cls-5" d="M124.27,36.44a12.26,12.26,0,0,0-7.55-9.06c-6.31-2.48-13.27.92-15.91,6.93a51.55,51.55,0,0,0-1.62,6.48"/><path class="cls-3" d="M84.63,80.23c-.32-1.67-4.42-5.87-8.57-1-4.93,5.82,1.76,11.7,5.48,9.88"/><path class="cls-5" d="M81.65,84.64s-.13-3.48-3.25-3.46"/><path class="cls-5" d="M80.37,82a2.31,2.31,0,0,0-1.86,3"/><path class="cls-3" d="M123.4,77c-4.09,5.54-6.58-.08-8.71,5.35a11.57,11.57,0,1,0,21.52,8.46c1.67-4.25.56-9.28-3.3-10.84-5-2-8.27,2-10.1,1.33"/><path class="cls-5" d="M114.41,87.69s14.06-2,20.85,5"/><path class="cls-3" d="M114,90.35l6.43,1.39c1.94.42,5.69.85,6.54,4.45.51,2.13-1.63,7.9-8.45,6-5.22-1.43-8-3.79-11.62-6.07"/><path class="cls-5" d="M100.82,69.05a14.35,14.35,0,0,0-8.55,12.13"/><path class="cls-3" d="M99,86c11.15.74,10.12,8,13.53,5.54a11.44,11.44,0,0,0,4.11-5.7,11.88,11.88,0,0,0,1-6.19s-5.73-3.2-11.3-11.26"/><path class="cls-5" d="M93.14,77.33c19.12,2.38,22.07,11.5,22.07,11.5"/><path class="cls-9" d="M132,232.89s-2-5.53-3.74-9.25c0,0-6.59-14.46-9.7-16.08s-21,14.92-21,25.33"/><path class="cls-9" d="M42.35,233.06S16.94,207.63,17.2,186.37,120,205.57,120,205.57a70.86,70.86,0,0,1-12.87,14.25c-7.92,6.58-7.47,13.24-7.47,13.24"/><path class="cls-4" d="M73.39,97.59s5.25,19.22,10.74,25.83c5.81,7,14,22,14,22l8.39-10.53.6-.76h0a1.83,1.83,0,0,1,2.54,1.36c.85,5.05,2.56,16.92.42,20.44,0,0,9,2.93,13.58,29.26,2.13,12.25,1,18.95,1,18.95S98.07,213.55,73,210.84s-62.69-21.48-61.24-35.77,18-29.17,25.82-35.43S56.9,122,62.6,114.46C65.76,110.27,73.39,97.59,73.39,97.59Z"/><path class="cls-4" d="M85.53,131.22,76,141.92c-12.07-14-7.55-45.15-5.26-48.54S78,91.14,78,91.14l-5.47,7.78"/><path class="cls-2" d="M69.47,130.85s-3.64-11.11-16.72-19.77-22.53-8.83-23-8.49,2.83,17.57,19.85,24.25S66.13,131.75,69.47,130.85Z"/><path class="cls-10" d="M67.7,92.68c-2.31-2.25-22.62-8.92-38,9.91,0,0,16,2,24.26,9.34s14.3,14,15.48,18.92C69.47,130.85,84.13,108.7,67.7,92.68Z"/><path class="cls-3" d="M26,122.1c-2.66,6.47-3.93,25.57,8.07,35.31s21.74,12.1,21.74,12.1.75,5,4.48,7.49h0s-4.84,7.58-2,11.83c2.63,4,6.69,2.12,8.06-1.91s2.31-8.42,8.17-5.51c1.21.61,1,9,1,9s.08,4.35,5.19,4.35,4.82-5.41,4.82-7.28-1.28-7.28-.59-8.65,3.15-4.73,9-4.53c0,0,1.78,5,4.93,6.4s8.39.69,7.24-6.34c-.91-5.55-6.28-9.49-9.43-10A12.42,12.42,0,0,1,87.67,159c-2.46-3.64-6.69-11.91-14.46-16-5.09-2.7-16.13-9.34-16.13-9.34l2.19,1.31L66,124.28A50.1,50.1,0,0,0,51.05,110C41.68,104.39,38,104.28,38,104.28S29.08,114.62,26,122.1Z"/></g><g id="doh_txt"><path class="cls-11" d="M76.92,31.6C81.2,15.43,63.06,12.33,46,12.33s-31,1-31,19.27C15,45,28.86,50.88,46,50.88c2.64,0,5.09-.06,7.38-.23a2.72,2.72,0,0,1,2,.65c5.81,5.22,14.4,4.8,17.41,4.45a.38.38,0,0,0,.15-.71c-4.13-2.44-7.46-4.62-8-5.95A.88.88,0,0,1,65.32,48C70.85,45.31,74.59,40.44,76.92,31.6Z"/><line class="cls-12" x1="32.61" y1="26.56" x2="32.61" y2="36.01"/><path class="cls-13" d="M30.14,26s8.17,0,9.7,3.75-1.19,6.13-3.4,6.72-6.3,0-6.3,0"/><path class="cls-13" d="M47.38,31.28c-1,0-2.69.53-2.73,3.18S48,37,48.92,35.8C50.12,34.18,49.74,31.28,47.38,31.28Z"/><path class="cls-14" d="M56.43,37.15s1-5.43-1.81-5.43c-2.36,0-2.64,1.53-2.64,5.43V25.69"/><line class="cls-14" x1="59.13" y1="24.71" x2="59.36" y2="33.44"/><path d="M60.4,36c0,.53-.17,1-1,1s-.95-.43-.95-1,.26-.95,1-.95A.9.9,0,0,1,60.4,36Z"/><path d="M43.25,27.06c0,2-1.41,2.54-1.21,2,.52-1.38-.7-1-.7-2,0-.53.26-.95,1-.95A.89.89,0,0,1,43.25,27.06Z"/></g></g></svg>