<svg id="good_homer" xmlns="http://www.w3.org/2000/svg" viewBox="0 0 195 225"><defs><style>.cls-1{opacity:0.1;}.cls-12,.cls-2{fill:#ffda21;}.cls-10,.cls-11,.cls-12,.cls-13,.cls-14,.cls-15,.cls-2,.cls-3,.cls-4,.cls-5,.cls-6,.cls-7,.cls-9{stroke:#000;}.cls-10,.cls-12,.cls-13,.cls-14,.cls-2,.cls-3,.cls-4,.cls-5,.cls-6,.cls-7{stroke-miterlimit:10;}.cls-10,.cls-11,.cls-12,.cls-2,.cls-3,.cls-4,.cls-5,.cls-6,.cls-7,.cls-9{stroke-width:0.5px;}.cls-14,.cls-15,.cls-3,.cls-4,.cls-9{fill:none;}.cls-12,.cls-14,.cls-15,.cls-3,.cls-6,.cls-9{stroke-linecap:round;}.cls-13,.cls-5,.cls-6,.cls-8{fill:#fff;}.cls-7{fill:#ccc6c9;}.cls-11,.cls-15,.cls-9{stroke-linejoin:round;}.cls-10{fill:#d5b07d;}.cls-11{fill:#000023;}</style></defs><g id="good_homer_shadow"><path class="cls-1" d="M185.71,84.78h0a5.13,5.13,0,0,0-.05-.65c0-.12,0-.25-.07-.37a1.59,1.59,0,0,0-.06-.3c0-.16-.08-.32-.13-.49s0-.12-.07-.19-.13-.37-.21-.55a1,1,0,0,0,0-.1A8,8,0,0,0,184,80.4l-.19-.23c-.12-.13-.25-.26-.38-.38l-.16-.17-.07,0a4.52,4.52,0,0,0-.75-.55l-.07,0-.15-.1a5.4,5.4,0,0,0-2.84-.67c-.14-1.26-.69-4.31-2.8-6.2l-.05,0a4.81,4.81,0,0,0-.62-.47l-.18-.12a5.54,5.54,0,0,0-.59-.32l-.26-.12a5.49,5.49,0,0,0-.65-.23l-.27-.08a8.18,8.18,0,0,0-1-.18l-.73,0h-.18c-.17,0-.35,0-.52,0l-.22,0-.44.07-.23.06-.4.11-.1,0c0-.09-.06-.19-.1-.29a.3.3,0,0,0,0-.08,3.13,3.13,0,0,0-.42-.74h0a4.06,4.06,0,0,0-1.81-1.32l0,0c-.16-.06-.32-.12-.5-.17l-.15,0-.45-.1-.22,0c-.14,0-.28,0-.43-.06l-.28,0-.41,0-.36,0-.8,0a5.77,5.77,0,0,0-1.05.15l-.32.1c-.22.07-.44.13-.65.22s-.23.12-.35.18a5.45,5.45,0,0,0-.53.29l-.34.24a5.32,5.32,0,0,0-.47.36l-.31.28-.42.41-.28.32-.38.46c-.08.12-.17.23-.25.34l-.34.5-.21.35c-.11.17-.21.35-.31.53l-.18.33-.28.56c-.05.1-.1.2-.14.3s-.18.41-.27.61l-.09.23c-.11.26-.21.52-.3.77v0c-.1.26-.18.5-.25.73l0,.08-.17.55,0,.13-.11.38s0,.07,0,.1,0,.14-.05.19-.26.14-.39.21-.3.15-.44.24a3.68,3.68,0,0,0-.44.34,2.76,2.76,0,0,0-.37.31,5,5,0,0,0-.37.42c-.1.12-.21.24-.3.37s-.2.32-.3.49-.16.27-.23.41-.16.36-.24.55-.13.3-.18.45-.12.39-.18.59-.1.32-.14.48l-.12.62c0,.17-.07.33-.09.49s-.06.43-.09.65,0,.32,0,.48,0,.44,0,.66,0,.31,0,.47,0,.43,0,.65,0,.3,0,.44,0,.43,0,.64,0,.27,0,.4,0,.42,0,.63,0,.23,0,.34l.06.6a2.28,2.28,0,0,1,0,.26c0,.21.05.39.08.57a.88.88,0,0,0,0,.16c0,.19,0,.34.07.49s0,.07,0,.1.05.3.07.41c-7.27,9.89-25.76,24.81-30,28.16-1.18-.61-1.91-.91-2-.93l-.3-.12-6.53,6.79c-1.51-.08-3.5-.08-4.65-.07,0-1.47.07-3,.16-4.65A26.66,26.66,0,0,0,119.27,110a4.67,4.67,0,0,0,2.34.72,3.84,3.84,0,0,0,.83-.09c2.07-.49,3.29-2.73,3.69-4.49.15-.62.25-1.12.33-1.55a15.5,15.5,0,0,1,2-5.27c1.24-2.38,1.59-4.22,1.06-5.62A4.05,4.05,0,0,0,127,91.37c-1.57-.6-3.17.15-4.39,1a35.27,35.27,0,0,0-5.23-4.57,17,17,0,0,0-.21-7.08c-.06-.21-.09-.43-.14-.65a11.88,11.88,0,0,0,.76-14.76,38,38,0,0,0,.36-4.74,5.23,5.23,0,0,0-2.46-4.38c-.69-.56-1.11-.92-1.11-1.36A24.47,24.47,0,0,0,100,32.49a10.52,10.52,0,0,0-15.37-6.4,10.55,10.55,0,0,0-13,10.26v2.71a24.35,24.35,0,0,0-5.83,15.82c0,1.86.71,5.5,1.7,10.54.94,4.83,2.12,10.88,3.19,17.84-.66-1.09-1.39-2.36-1.94-3.32-2.06-3.59-2.06-3.6-2.51-3.48a.56.56,0,0,0-.36.33c-.18.5-.11,11.38.71,12.49a.51.51,0,0,0,.4.2.52.52,0,0,0,.29-.09.48.48,0,0,0,.11-.68c-.39-.72-.64-7.32-.63-10.27l1.15,2c1.7,3,2.59,4.46,3.12,5.21.2,1.34.38,2.71.56,4.12h-.41c-1.46.18-3.45,1.08-4.57,4.37-1.19,3.5-.18,6.6,2.71,8.32a7.23,7.23,0,0,0,3.62,1h0a204.77,204.77,0,0,1,.37,21.79l-1.06,0a31.72,31.72,0,0,0-4.85-4.42l-.08-.06a.06.06,0,0,0,0,0,.89.89,0,0,0-.62-.58,5.62,5.62,0,0,0-3.62.52c-1.11-.94-2.4-2-3.83-3.29l-.72-.63-2.58-2.28-1-.9c-2.59-2.33-5.35-4.89-8-7.5l-1.75-1.73-.06-.06c-.52-.53-1-1-1.55-1.58s-1.12-1.16-1.66-1.74c-.78-.83-1.53-1.66-2.25-2.47l-.74-.84c-1.27-1.49-2.41-2.92-3.35-4.25A31.81,31.81,0,0,0,36,89.81c.26-3.81-.12-9.27-4.12-10.75h0a.43.43,0,0,1,0-.12c0-.06,0-.12-.05-.19s0-.18-.06-.28,0-.15-.06-.24-.06-.24-.09-.37a2.13,2.13,0,0,1-.07-.27c-.05-.17-.1-.35-.16-.54l-.06-.19c-.08-.26-.17-.53-.27-.8l-.1-.28c-.07-.19-.14-.38-.22-.57l-.16-.36-.23-.53L30.13,74l-.27-.51c-.07-.13-.15-.26-.23-.38a3.88,3.88,0,0,0-.3-.48c-.08-.13-.17-.25-.26-.38l-.34-.45c-.09-.12-.19-.23-.29-.34s-.26-.28-.39-.41l-.32-.31q-.23-.19-.45-.36l-.35-.26c-.16-.11-.34-.2-.52-.3l-.36-.19a6,6,0,0,0-.64-.23,3.19,3.19,0,0,0-.33-.11A6,6,0,0,0,24,69.06l-.83,0-.46,0h-.29l-.47,0-.22,0-.44.08-.19,0-.41.11-.16.05-.38.13-.11,0a6,6,0,0,0-.62.32.67.67,0,0,1-.11.07l-.25.18-.15.13-.15.12-.22.23-.07.09L18.3,71a.21.21,0,0,1,0,.06,4.83,4.83,0,0,0-.28.47h0a3.35,3.35,0,0,0-.18.46,6.28,6.28,0,0,0-2.11-.4h0c-.25,0-.5,0-.77,0a8.26,8.26,0,0,0-1.05.16l-.32.09-.63.2-.34.15c-.18.08-.35.17-.51.26l-.31.19a5.09,5.09,0,0,0-.45.31l-.27.22-.41.38-.21.21c-.15.17-.3.35-.44.53l-.09.12c-.16.22-.31.45-.45.68a2.53,2.53,0,0,0-.13.22c-.09.16-.18.32-.26.48l-.13.28-.19.42a2.33,2.33,0,0,1-.11.28l-.15.41a2.58,2.58,0,0,0-.08.26,3,3,0,0,0-.12.4,1.72,1.72,0,0,0-.07.21c0,.15-.07.29-.1.43s0,.09,0,.12c0,.18-.07.34-.1.48s0,.06,0,.1l0,.22A5.4,5.4,0,0,0,5.23,80a5.74,5.74,0,0,0-1.14.81l0,0,0,.06c-.17.16-.34.32-.5.5l-.09.11a7.68,7.68,0,0,0-1.16,1.82,1,1,0,0,1,0,.1c-.07.14-.12.29-.18.44l-.13.37-.09.32a4.35,4.35,0,0,0-.13.58l0,.13a6.14,6.14,0,0,0-.07.7h0s0,0,0,.06c0,.29,0,.62,0,1,0,3.33.55,9.94,7.44,17,.52.52,1.06,1,1.64,1.57a26.77,26.77,0,0,1,2.9,4l1,1.49c.56.88,1.18,1.84,1.83,2.84a154.68,154.68,0,0,0,9.5,13.22c1.74,2.14,3.85,4.61,6.08,7.16l1.94,2.2c4.63,5.23,9.49,10.51,12.56,13.81-.32,2.44-.12,4.3.75,5.21.14.24,4.7,8.21,17.24,9.7a17,17,0,0,1-1.83,3.43c-.88,1.22-1.89,2.54-3,4-6.94,9.15-19.44,23-18.46,38.91.53,8.54.93,11.74,1.3,13l0,.59h0l0,.35,95.61-.2h.34l.12-.32s1.34-3.66,2.43-7.61a7.57,7.57,0,0,0,2.76-1.11h.06v-.07a.84.84,0,0,0,.33-.6,3.6,3.6,0,0,0-.19-1.05c.37-5.35-2.19-22.16-9.74-35.73a40.41,40.41,0,0,0-9.25-11.82,26.42,26.42,0,0,1-3.07-3.1,1.4,1.4,0,0,1-.1-.25c3.61-.92,25.3-6.89,22.93-17.15-.23-1-.51-2-.82-2.92,5.27-5.51,12.65-13.37,17.38-19a172.21,172.21,0,0,0,11.37-15.47,42.51,42.51,0,0,1,3.87-5.34,32.21,32.21,0,0,0,4.3-4.46,21.85,21.85,0,0,0,4.94-14.5ZM80.64,32.38a9.64,9.64,0,0,1,4.09-5.24,9.57,9.57,0,0,1,4.93,3.32A24.22,24.22,0,0,0,80.64,32.38Zm9.13-6.69a9.55,9.55,0,0,1,9,6.32,24.34,24.34,0,0,0-7.9-1.55,10.5,10.5,0,0,0-4.94-4A9.47,9.47,0,0,1,89.77,25.69ZM72.55,36.35a9.59,9.59,0,0,1,9.58-9.58,10.86,10.86,0,0,1,1.28.09,10.64,10.64,0,0,0-3.92,6A24.67,24.67,0,0,0,72.55,38Z"/></g><g id="good_homer-2" data-name="good_homer"><path class="cls-2" d="M71.83,54.88c0,6.48,9,35.78,7.52,71.12-.13,3.13,21.84,11.89,32.27,13.75,0,0,2.15-3.93,2.72-3.93,0,0-1.17-14.35,1.28-27.07,1.26-6.53,5.12-14.08,6.71-20a16.57,16.57,0,0,0,0-7.8c-1.71-6,1-14.05,1-20.28,0-3.68-3.57-4-3.57-5.74a23.95,23.95,0,1,0-47.89,0Z"/><path class="cls-2" d="M158.51,91.57S156.22,79.92,162,77.91c0,0,2-9.32,7.74-9.59,5.11-.25,5.59,2.5,5.64,3.11a5.78,5.78,0,0,1,3.14-.49c5.47.52,6,7,6.05,7.8,4.15-.49,6.25,3.71,6.26,6,0,2.91.1,10.67-9.07,18.59-1.86,1.61-7.25,11.34-15.3,20.86s-23.66,25.46-23.66,25.46l-15.36-29S150.29,102.89,158.51,91.57Z"/><path class="cls-3" d="M164.3,85.56c5.28,10.29,12.71,6.37,11.87-.16s-8.4-9.51-14.18-7.49-3.48,13.66-3.48,13.66c-8.22,11.32-31.08,29.13-31.08,29.13"/><path class="cls-4" d="M162,77.91s2-9.32,7.74-9.59,5.64,3.23,5.64,3.23"/><path class="cls-4" d="M171.66,78.83s.1-8.54,6.85-7.89c5.86.56,6.05,7.89,6.05,7.89"/><path class="cls-3" d="M187.36,86.72s-.57.78-1.31,1.69a11.23,11.23,0,0,1-2.84,2.8"/><path class="cls-3" d="M142.79,149.69s15.61-15.94,23.66-25.46,13.44-19.25,15.3-20.86c9.17-7.92,9.07-15.68,9.07-18.59s-3.25-8.7-9.65-4.76-5.42,10-3.68,13.41,7.81-.24,9.07-2.15S186,89,186,89"/><path class="cls-3" d="M170.11,98.31a8.39,8.39,0,0,1-.7-7"/><path class="cls-5" d="M114.12,131.38l11.76-12.23s19.41,7.87,23.91,27.38c2.44,10.6-23,16.68-23,16.68"/><path class="cls-6" d="M120,142.22s5.21.52,5.8-.53-2.51-14.59-4.88-15.64c-.74-.33-6.85-.27-6.85-.27l.27,10"/><path class="cls-6" d="M117.22,136.14s5.38,11.54,6.5,14.05c2.74,6.15,2.64,13.07,3.34,13.94,3.08,3.84,6.73,4.88,12.27,14.85,9.08,16.32,9.54,37.15,9.54,37.15s-1.82-15.24-47.49-15.37S49,223.86,49,223.86s-.66,5.8-1.78-12.35S61.92,178.18,68.58,169s8.58-43.1,8.58-43.1,20.46-1.12,23.23-1,11.23,14.89,11.23,14.89l7-10.93"/><path class="cls-7" d="M72.15,120.7c-9.69-2.15-23.32,30.76-18.94,34.58a51,51,0,0,0,12.68-13.6C71.41,132.68,73.6,121,72.15,120.7Z"/><ellipse class="cls-8" cx="114.34" cy="72.26" rx="11.03" ry="11.4"/><path d="M114.34,61.12a11.15,11.15,0,1,1-10.78,11.14,11,11,0,0,1,10.78-11.14m0-.5a11.65,11.65,0,1,0,11.28,11.64,11.46,11.46,0,0,0-11.28-11.64Z"/><circle cx="120.76" cy="71.96" r="1.96"/><path class="cls-9" d="M83.72,84.44s-2.1-7.45-3.53-8.87-2.1,10.52-2.72,10.35-5.35-9-5.58-9,0,11.2.63,12.06"/><path class="cls-10" d="M128.07,93s-6.88-7.79-12.79-7.56S106,87,101.57,87.74c-9.09,1.53-13.59,7.33-15,13s-.74,19.56,13.53,21.89c17.25,2.82,24.4-13,24.4-13"/><path class="cls-10" d="M126.53,94.73s3.13-4,5.92-2.9,3.18,3.41,1.19,7.22-1.71,4-2.39,6.94-3.81,7.22-8.92,1"/><path class="cls-11" d="M129.32,97.57s-.49,1.07-.72,1.77.25,1.07.64,1.76c.63,1.1,0,2.82-1.56,2.36S125.49,99.62,129.32,97.57Z"/><path class="cls-3" d="M105.14,32.83A10.07,10.07,0,0,0,85.3,35.27V41"/><path class="cls-3" d="M96.21,30.94a10.06,10.06,0,0,0-18.55,5.41v5.71"/><path class="cls-2" d="M7.67,86c0-2.35,2.2-6.47,6.28-6.08l0,0s.61-7.34,6.62-7.8a5.86,5.86,0,0,1,3.2.59c.07-.69.7-3.44,5.84-3.1C35.45,70,37,79.43,37,79.43h0l.27.08c5.87,2.18,3.3,14.06,3.3,14.06,8.18,11.74,31.55,30.73,31.55,30.73-2,17.5-16.62,29.06-16.62,29.06s-15.66-16.63-23.71-26.53-13.37-20-15.24-21.65C7.35,96.9,7.6,89,7.67,86Z"/><path class="cls-3" d="M72.15,124.31s-23.37-19-31.55-30.73c0,0,2.57-11.88-3.3-14.06s-13.66.72-14.65,7.39,6.53,10.82,12.14.4"/><path class="cls-4" d="M37,79.43S35.45,70,29.58,69.55s-5.86,3.26-5.86,3.26"/><path class="cls-4" d="M27.39,80.28s.07-8.75-6.85-8.22c-6,.46-6.62,7.8-6.62,7.8"/><path class="cls-3" d="M11.16,88s.57.81,1.31,1.76a12,12,0,0,0,2.85,2.93"/><path class="cls-4" d="M12.81,90.23a1.51,1.51,0,0,0-.92,2.49c1.25,2,7.39,5.81,9.24,2.37s3-9.63-3.5-13.79S7.73,83,7.67,86s-.32,10.91,8.91,19.2c1.87,1.69,7.19,11.75,15.24,21.65s23.71,26.53,23.71,26.53"/><path class="cls-3" d="M28.59,100.24a8.61,8.61,0,0,0,.85-7.13"/><path class="cls-12" d="M81.25,92c-.94-1.49-6.49-4-8.64,2.31-2.55,7.48,6.14,10.63,9,7.46"/><path class="cls-3" d="M80.05,97.38s-1.45-3.31-4.45-2.1"/><path class="cls-3" d="M77.82,95.34a2.4,2.4,0,0,0-.66,3.6"/><path class="cls-2" d="M106.92,78a46.79,46.79,0,0,0,5-1c2-.57,5.67-2,8.23.89,1.51,1.71,2.38,8.09-4.83,9.72-5.52,1.25-9.27.45-13.71.12"/><path class="cls-8" d="M95.81,86.15C89.28,86.15,84,80.48,84,73.51s5.31-12.64,11.84-12.64,11.84,5.67,11.84,12.64S102.34,86.15,95.81,86.15Z"/><path d="M95.81,61.12c6.39,0,11.59,5.56,11.59,12.39S102.2,85.9,95.81,85.9,84.22,80.34,84.22,73.51s5.2-12.39,11.59-12.39m0-.5c-6.68,0-12.09,5.77-12.09,12.89S89.13,86.4,95.81,86.4s12.09-5.77,12.09-12.89-5.41-12.89-12.09-12.89Z"/><circle cx="91.71" cy="72.53" r="1.96"/><path class="cls-3" d="M100.59,128.62s-2.84,8.25-3.3,12.61H86.05"/><path class="cls-6" d="M87.33,149.87s-1-18.61-14.66-28.58c0,0-.33,19.08-19.46,34,0,0,6.07,11.29,24.81,9.51"/><path class="cls-7" d="M149.19,215.52c0-2.35-8.1-14.82-47.81-14.76-20.79,0-51.78,7.35-52.83,23.71,0,0,25.14-4.86,49.84-4.86S149.19,217.88,149.19,215.52Z"/><path class="cls-2" d="M143.64,224.74a88.14,88.14,0,0,0,3.56-12.42s-8-12.44-48.81-11.54c-14.72.33-32.79,2.24-44.78,13.48a17.2,17.2,0,0,0-5.06,10.68"/><path class="cls-4" d="M113.19,202.75s-2.69,1.33-2.37,3.13c.23,1.33,3.3,1.27,3.3-.08,0-1-.76-1.72-2.41-1.35"/></g><g id="woohoo_txt"><path class="cls-13" d="M124.85,31.6c-4.27-16.17,13.86-19.27,31-19.27s31,1,31,19.27c0,13.41-13.86,19.28-31,19.28-2.64,0-5.1-.06-7.38-.23a2.74,2.74,0,0,0-2,.65c-5.81,5.22-14.39,4.8-17.41,4.45a.38.38,0,0,1-.14-.71c4.13-2.44,7.45-4.62,8-5.95a.89.89,0,0,0-.47-1.14C130.93,45.31,127.19,40.44,124.85,31.6Z"/><path class="cls-14" d="M150.47,31.28c-1.05,0-2.69.53-2.74,3.18S151.13,37,152,35.8C153.21,34.18,152.83,31.28,150.47,31.28Z"/><path class="cls-14" d="M143.92,31.28c-1,0-2.69.53-2.74,3.18s3.4,2.52,4.27,1.34C146.66,34.18,146.28,31.28,143.92,31.28Z"/><path class="cls-14" d="M174,31.28c-1,0-2.69.53-2.74,3.18s3.4,2.52,4.27,1.34C176.75,34.18,176.37,31.28,174,31.28Z"/><path class="cls-14" d="M167.46,31.28c-1.05,0-2.69.53-2.74,3.18S168.12,37,169,35.8C170.2,34.18,169.82,31.28,167.46,31.28Z"/><path class="cls-15" d="M162.8,32.57s.21-.74-2.93-.74c-2.37,0-1.92,1.42-1.92,5.32V25.69"/><line class="cls-15" x1="162.8" y1="37.15" x2="162.8" y2="25.69"/><line class="cls-15" x1="179.42" y1="24.71" x2="179.65" y2="33.44"/><path d="M180.69,36c0,.53-.17,1-.95,1s-1-.43-1-1,.26-.95,1-.95A.89.89,0,0,1,180.69,36Z"/><polyline class="cls-15" points="129.16 27.3 132.26 36.41 135.07 32.96 137.75 36.41 142.05 26.43"/></g></svg>